<svg width="1209" height="304" viewBox="0 0 1209 304" fill="none" xmlns="http://www.w3.org/2000/svg">
<rect width="1209" height="304" rx="20" fill="#000C7C"/>
<path d="M426.827 101.852C428.956 101.852 430.53 101.944 431.548 102.129C432.659 102.222 433.862 102.638 435.158 103.379C436.547 104.119 437.519 105.369 438.074 107.128C438.629 108.887 438.907 111.247 438.907 114.209C438.907 117.171 438.629 119.532 438.074 121.29C437.519 123.049 436.547 124.299 435.158 125.039C433.77 125.687 432.52 126.104 431.409 126.289C430.391 126.381 428.771 126.428 426.55 126.428H384.062V140.451H411.415C413.637 140.451 415.257 140.544 416.275 140.729C417.386 140.822 418.635 141.238 420.024 141.979C422.43 143.367 423.634 147.024 423.634 152.948C423.634 159.427 421.875 163.269 418.358 164.472C416.877 164.935 414.516 165.166 411.276 165.166H384.062V191.409C384.062 193.63 383.969 195.25 383.784 196.268C383.692 197.287 383.275 198.49 382.535 199.879C381.239 202.378 377.629 203.627 371.704 203.627C365.225 203.627 361.43 201.869 360.319 198.351C359.764 196.87 359.486 194.51 359.486 191.27V114.07C359.486 109.349 360.365 106.156 362.124 104.49C363.883 102.731 367.215 101.852 372.121 101.852H426.827ZM433.336 167.11C433.336 156.002 437.224 146.838 444.999 139.618C452.775 132.398 461.661 128.788 471.658 128.788C481.655 128.788 490.495 132.398 498.178 139.618C505.861 146.746 509.702 155.864 509.702 166.971C509.702 174.654 507.712 181.504 503.732 187.521C499.752 193.445 494.892 197.842 489.153 200.712C483.506 203.489 477.629 204.877 471.519 204.877C465.41 204.877 459.486 203.396 453.747 200.434C448.007 197.379 443.148 192.936 439.167 187.104C435.28 181.18 433.336 174.516 433.336 167.11ZM462.355 177.107C465.317 179.329 468.326 180.44 471.38 180.44C474.435 180.44 477.49 179.283 480.544 176.969C483.599 174.654 485.126 171.229 485.126 166.694C485.126 162.158 483.692 158.779 480.822 156.558C477.952 154.336 474.852 153.225 471.519 153.225C468.187 153.225 465.086 154.383 462.216 156.697C459.347 159.011 457.912 162.436 457.912 166.971C457.912 171.415 459.393 174.793 462.355 177.107ZM568.381 131.287C570.14 131.843 571.575 132.815 572.685 134.203C573.889 135.499 574.49 137.628 574.49 140.59C574.49 143.552 573.611 146.792 571.852 150.31C570.094 153.827 567.548 155.586 564.216 155.586C562.55 155.586 560.93 155.216 559.356 154.475C557.875 153.735 555.885 153.364 553.386 153.364C550.886 153.364 548.526 154.244 546.304 156.002C544.175 157.761 543.111 159.89 543.111 162.389V191.548C543.111 193.677 543.018 195.297 542.833 196.407C542.74 197.426 542.324 198.629 541.583 200.017C540.195 202.424 536.585 203.627 530.753 203.627C526.31 203.627 523.117 202.841 521.173 201.267C519.692 199.971 518.859 197.981 518.673 195.297C518.673 194.371 518.673 193.029 518.673 191.27V142.534C518.673 140.405 518.72 138.831 518.812 137.813C518.997 136.702 519.414 135.499 520.062 134.203C521.358 131.704 524.968 130.454 530.892 130.454C536.446 130.454 539.917 131.519 541.306 133.648C542.324 135.129 542.833 136.656 542.833 138.23C543.296 137.582 543.944 136.795 544.777 135.869C545.703 134.944 547.6 133.694 550.47 132.12C553.339 130.547 555.839 129.76 557.968 129.76C560.189 129.76 562.04 129.899 563.521 130.177C565.002 130.362 566.622 130.732 568.381 131.287ZM606.013 140.174C610.364 133.602 615.594 130.315 621.703 130.315C631.145 130.315 638.18 134.342 642.808 142.395C643.826 141.007 645.03 139.572 646.418 138.091C647.899 136.517 650.214 134.851 653.361 133.092C656.508 131.241 659.748 130.315 663.08 130.315C670.485 130.315 676.687 133.185 681.686 138.924C686.684 144.571 689.184 153.966 689.184 167.11V191.409C689.184 193.538 689.091 195.158 688.906 196.268C688.813 197.287 688.397 198.49 687.656 199.879C686.453 202.378 682.889 203.627 676.965 203.627C671.133 203.627 667.57 202.332 666.274 199.74C665.626 198.351 665.209 197.148 665.024 196.13C664.931 195.019 664.885 193.399 664.885 191.27V166.971C664.885 158.918 662.016 154.892 656.277 154.892C653.037 154.892 650.815 155.956 649.612 158.085C648.501 160.214 647.946 163.223 647.946 167.11V191.409C647.946 193.63 647.853 195.25 647.668 196.268C647.575 197.287 647.159 198.49 646.418 199.879C645.122 202.378 641.512 203.627 635.588 203.627C629.757 203.627 626.193 202.332 624.897 199.74C624.249 198.351 623.832 197.148 623.647 196.13C623.555 195.019 623.508 193.399 623.508 191.27V166.971C623.508 158.918 620.639 154.892 614.9 154.892C609.346 154.892 606.569 158.918 606.569 166.971V191.548C606.569 193.677 606.476 195.297 606.291 196.407C606.199 197.426 605.782 198.629 605.041 200.017C603.653 202.424 600.043 203.627 594.211 203.627C588.38 203.627 584.816 202.378 583.52 199.879C582.872 198.49 582.455 197.287 582.27 196.268C582.178 195.25 582.131 193.63 582.131 191.409V142.534C582.131 140.405 582.178 138.831 582.27 137.813C582.455 136.702 582.918 135.499 583.659 134.203C585.047 131.704 588.333 130.454 593.517 130.454C598.701 130.454 602.079 131.287 603.653 132.954C605.227 134.62 606.013 137.026 606.013 140.174ZM747.72 138.23C748.276 133.046 751.932 130.454 758.689 130.454C762.299 130.454 764.984 130.732 766.742 131.287C768.501 131.843 769.705 132.815 770.352 134.203C771.093 135.592 771.51 136.841 771.602 137.952C771.787 138.97 771.88 140.544 771.88 142.673V191.27C771.88 193.399 771.787 195.019 771.602 196.13C771.51 197.148 771.139 198.351 770.491 199.74C769.195 202.146 766.002 203.35 760.911 203.35C755.912 203.35 752.534 202.748 750.775 201.545C749.109 200.249 748.137 198.397 747.859 195.991C744.434 200.897 738.695 203.35 730.642 203.35C722.681 203.35 715.276 199.693 708.426 192.381C701.576 185.068 698.151 176.598 698.151 166.971C698.151 157.252 701.576 148.782 708.426 141.562C715.369 134.249 722.959 130.593 731.197 130.593C734.344 130.593 737.214 131.149 739.806 132.259C742.398 133.37 744.203 134.435 745.221 135.453C746.239 136.379 747.072 137.304 747.72 138.23ZM722.45 167.11C722.45 170.165 723.653 172.942 726.06 175.441C728.467 177.848 731.382 179.051 734.807 179.051C738.232 179.051 741.055 177.802 743.277 175.302C745.591 172.803 746.748 170.072 746.748 167.11C746.748 164.056 745.637 161.232 743.416 158.641C741.287 156.049 738.371 154.753 734.668 154.753C731.058 154.753 728.096 156.049 725.782 158.641C723.561 161.232 722.45 164.056 722.45 167.11ZM825.434 155.03L816.409 154.475V173.636C816.409 176.135 816.779 177.94 817.52 179.051C818.353 180.162 819.834 180.717 821.963 180.717C824.184 180.717 825.851 180.81 826.961 180.995C828.165 181.088 829.414 181.504 830.71 182.245C832.839 183.448 833.904 186.549 833.904 191.548C833.904 197.379 832.608 200.943 830.016 202.239C828.628 202.887 827.378 203.303 826.267 203.489C825.249 203.581 823.722 203.627 821.685 203.627C812.058 203.627 804.746 201.452 799.747 197.102C794.749 192.751 792.249 185.392 792.249 175.025V154.475C790.491 154.753 788.593 154.892 786.557 154.892C784.52 154.892 782.808 154.105 781.419 152.531C780.123 150.958 779.475 148.273 779.475 144.478C779.475 140.683 779.707 137.952 780.17 136.286C780.632 134.527 781.28 133.278 782.113 132.537C783.594 131.334 785.446 130.732 787.667 130.732L792.249 131.287V116.986C792.249 114.857 792.296 113.283 792.388 112.265C792.573 111.247 793.036 110.136 793.777 108.933C794.98 106.619 798.544 105.462 804.468 105.462C810.762 105.462 814.511 107.174 815.715 110.599C816.178 112.08 816.409 114.44 816.409 117.68V131.287C820.482 130.917 823.537 130.732 825.573 130.732C827.702 130.732 829.276 130.825 830.294 131.01C831.405 131.102 832.654 131.519 834.043 132.259C836.449 133.463 837.653 137.026 837.653 142.951C837.653 148.782 836.403 152.346 833.904 153.642C832.515 154.29 831.266 154.707 830.155 154.892C829.137 154.984 827.563 155.03 825.434 155.03ZM865.518 167.11C865.518 170.998 866.814 174.053 869.406 176.274C871.998 178.403 874.728 179.468 877.598 179.468C880.56 179.468 883.291 178.635 885.79 176.969C888.382 175.21 890.464 174.33 892.038 174.33C894.815 174.33 898.194 176.783 902.174 181.689C904.303 184.374 905.367 186.78 905.367 188.91C905.367 192.427 902.822 195.713 897.731 198.768C892.455 202.47 885.975 204.322 878.292 204.322C869.683 204.322 861.399 201.221 853.438 195.019C849.643 192.057 846.542 188.123 844.135 183.217C841.729 178.218 840.525 172.757 840.525 166.833C840.525 160.816 841.729 155.401 844.135 150.587C846.542 145.681 849.643 141.747 853.438 138.785C861.121 132.676 869.313 129.621 878.014 129.621C881.532 129.621 884.957 130.13 888.289 131.149C891.621 132.074 894.074 133 895.648 133.926L897.87 135.314C899.536 136.425 900.832 137.304 901.757 137.952C904.164 139.803 905.367 141.932 905.367 144.339C905.367 146.653 904.395 149.291 902.452 152.254C899.119 157.345 895.926 159.89 892.871 159.89C891.112 159.89 888.613 158.872 885.373 156.836C883.707 155.262 881.3 154.475 878.153 154.475C875.098 154.475 872.229 155.586 869.545 157.807C866.86 160.029 865.518 163.13 865.518 167.11ZM954.067 130.732C963.324 130.732 971.007 134.249 977.116 141.284C983.318 148.319 986.419 156.928 986.419 167.11V191.548C986.419 193.677 986.327 195.297 986.141 196.407C986.049 197.426 985.632 198.629 984.892 200.017C983.688 202.424 980.125 203.627 974.2 203.627C968.554 203.627 965.036 202.424 963.648 200.017C962.907 198.629 962.445 197.379 962.259 196.268C962.167 195.158 962.121 193.492 962.121 191.27V166.971C962.121 163.176 961.056 160.214 958.927 158.085C956.798 155.956 954.067 154.892 950.735 154.892C947.495 154.892 944.626 155.91 942.126 157.946C939.627 159.89 938.192 162.112 937.822 164.611V191.548C937.822 193.677 937.73 195.297 937.544 196.407C937.452 197.426 937.035 198.629 936.295 200.017C935.091 202.424 931.528 203.627 925.603 203.627C919.772 203.627 916.208 202.378 914.912 199.879C914.264 198.49 913.848 197.287 913.663 196.268C913.57 195.25 913.524 193.63 913.524 191.409V108.377C913.524 106.248 913.57 104.675 913.663 103.657C913.848 102.546 914.264 101.342 914.912 100.046C916.208 97.5472 919.818 96.2976 925.742 96.2976C931.574 96.2976 935.091 97.5472 936.295 100.046C937.035 101.435 937.452 102.685 937.544 103.795C937.73 104.814 937.822 106.387 937.822 108.516V139.202C942.45 133.555 947.866 130.732 954.067 130.732Z" fill="#FA5D14"/>
<rect x="203.061" y="83.0601" width="138.848" height="138.849" rx="30.8552" fill="#FA5D14"/>
<path d="M231.639 168.917C230.337 168.917 229.469 168.483 228.602 167.615L212.546 151.56C211.678 150.692 211.245 149.824 211.245 148.522C211.245 147.221 211.678 146.353 212.546 145.485L219.055 138.976C220.357 137.674 222.093 137.24 223.394 138.108L226.866 139.41L229.469 136.806C229.035 132.467 230.337 127.694 233.809 124.222L252.033 105.998C259.41 98.6208 269.39 94.2816 280.239 93.8477H281.974C283.71 93.8477 285.446 94.7155 285.88 96.4512C286.313 98.1869 286.313 99.9226 285.012 101.224L282.842 103.394C277.201 109.035 274.164 116.846 275.465 124.656C275.465 125.958 275.031 127.26 274.164 128.128L255.939 146.353C252.467 149.824 248.128 151.126 243.355 150.692L240.751 153.295L242.053 156.767C242.487 158.503 242.053 159.804 241.185 161.106L234.676 167.615C233.809 168.483 232.941 168.917 231.639 168.917Z" fill="#000C7C"/>
<path d="M327.97 180.199L279.371 135.504L262.448 152.427C262.014 152.861 262.014 152.861 261.58 153.295L306.708 202.329C309.745 205.366 313.217 207.102 317.556 207.102H317.99C321.895 207.102 325.801 205.366 328.838 202.763C331.875 199.725 333.177 195.82 333.177 191.481C332.743 187.142 331.008 183.236 327.97 180.199Z" fill="#000C7C"/>
</svg>
