<svg width="918" height="304" viewBox="0 0 918 304" fill="none" xmlns="http://www.w3.org/2000/svg">
<rect width="918" height="304" rx="50" fill="#000C7C"/>
<path d="M281.827 101.852C283.956 101.852 285.53 101.944 286.548 102.129C287.659 102.222 288.862 102.638 290.158 103.379C291.547 104.119 292.519 105.369 293.074 107.128C293.629 108.887 293.907 111.247 293.907 114.209C293.907 117.171 293.629 119.532 293.074 121.29C292.519 123.049 291.547 124.299 290.158 125.039C288.77 125.687 287.52 126.104 286.409 126.289C285.391 126.381 283.771 126.428 281.55 126.428H239.062V140.451H266.415C268.637 140.451 270.257 140.544 271.275 140.729C272.386 140.822 273.635 141.238 275.024 141.979C277.43 143.367 278.634 147.024 278.634 152.948C278.634 159.427 276.875 163.269 273.358 164.472C271.877 164.935 269.516 165.166 266.276 165.166H239.062V191.409C239.062 193.63 238.969 195.25 238.784 196.268C238.692 197.287 238.275 198.49 237.535 199.879C236.239 202.378 232.629 203.627 226.704 203.627C220.225 203.627 216.43 201.869 215.319 198.351C214.764 196.87 214.486 194.51 214.486 191.27V114.07C214.486 109.349 215.365 106.156 217.124 104.49C218.883 102.731 222.215 101.852 227.121 101.852H281.827ZM288.336 167.11C288.336 156.002 292.224 146.838 299.999 139.618C307.775 132.398 316.661 128.788 326.658 128.788C336.655 128.788 345.495 132.398 353.178 139.618C360.861 146.746 364.702 155.864 364.702 166.971C364.702 174.654 362.712 181.504 358.732 187.521C354.752 193.445 349.892 197.842 344.153 200.712C338.506 203.489 332.629 204.877 326.519 204.877C320.41 204.877 314.486 203.396 308.747 200.434C303.007 197.379 298.148 192.936 294.167 187.104C290.28 181.18 288.336 174.516 288.336 167.11ZM317.355 177.107C320.317 179.329 323.326 180.44 326.38 180.44C329.435 180.44 332.49 179.283 335.544 176.969C338.599 174.654 340.126 171.229 340.126 166.694C340.126 162.158 338.692 158.779 335.822 156.558C332.952 154.336 329.852 153.225 326.519 153.225C323.187 153.225 320.086 154.383 317.216 156.697C314.347 159.011 312.912 162.436 312.912 166.971C312.912 171.415 314.393 174.793 317.355 177.107ZM423.381 131.287C425.14 131.843 426.575 132.815 427.685 134.203C428.889 135.499 429.49 137.628 429.49 140.59C429.49 143.552 428.611 146.792 426.852 150.31C425.094 153.827 422.548 155.586 419.216 155.586C417.55 155.586 415.93 155.216 414.356 154.475C412.875 153.735 410.885 153.364 408.386 153.364C405.886 153.364 403.526 154.244 401.304 156.002C399.175 157.761 398.111 159.89 398.111 162.389V191.548C398.111 193.677 398.018 195.297 397.833 196.407C397.74 197.426 397.324 198.629 396.583 200.017C395.195 202.424 391.585 203.627 385.753 203.627C381.31 203.627 378.117 202.841 376.173 201.267C374.692 199.971 373.859 197.981 373.673 195.297C373.673 194.371 373.673 193.029 373.673 191.27V142.534C373.673 140.405 373.72 138.831 373.812 137.813C373.997 136.702 374.414 135.499 375.062 134.203C376.358 131.704 379.968 130.454 385.892 130.454C391.446 130.454 394.917 131.519 396.306 133.648C397.324 135.129 397.833 136.656 397.833 138.23C398.296 137.582 398.944 136.795 399.777 135.869C400.703 134.944 402.6 133.694 405.47 132.12C408.339 130.547 410.839 129.76 412.968 129.76C415.189 129.76 417.04 129.899 418.521 130.177C420.002 130.362 421.622 130.732 423.381 131.287ZM461.013 140.174C465.364 133.602 470.594 130.315 476.703 130.315C486.145 130.315 493.18 134.342 497.808 142.395C498.826 141.007 500.03 139.572 501.418 138.091C502.899 136.517 505.214 134.851 508.361 133.092C511.508 131.241 514.748 130.315 518.08 130.315C525.485 130.315 531.687 133.185 536.686 138.924C541.684 144.571 544.184 153.966 544.184 167.11V191.409C544.184 193.538 544.091 195.158 543.906 196.268C543.813 197.287 543.397 198.49 542.656 199.879C541.453 202.378 537.889 203.627 531.965 203.627C526.133 203.627 522.57 202.332 521.274 199.74C520.626 198.351 520.209 197.148 520.024 196.13C519.931 195.019 519.885 193.399 519.885 191.27V166.971C519.885 158.918 517.016 154.892 511.277 154.892C508.037 154.892 505.815 155.956 504.612 158.085C503.501 160.214 502.946 163.223 502.946 167.11V191.409C502.946 193.63 502.853 195.25 502.668 196.268C502.575 197.287 502.159 198.49 501.418 199.879C500.122 202.378 496.512 203.627 490.588 203.627C484.757 203.627 481.193 202.332 479.897 199.74C479.249 198.351 478.832 197.148 478.647 196.13C478.555 195.019 478.508 193.399 478.508 191.27V166.971C478.508 158.918 475.639 154.892 469.9 154.892C464.346 154.892 461.569 158.918 461.569 166.971V191.548C461.569 193.677 461.476 195.297 461.291 196.407C461.199 197.426 460.782 198.629 460.041 200.017C458.653 202.424 455.043 203.627 449.211 203.627C443.38 203.627 439.816 202.378 438.52 199.879C437.872 198.49 437.455 197.287 437.27 196.268C437.178 195.25 437.131 193.63 437.131 191.409V142.534C437.131 140.405 437.178 138.831 437.27 137.813C437.455 136.702 437.918 135.499 438.659 134.203C440.047 131.704 443.333 130.454 448.517 130.454C453.701 130.454 457.079 131.287 458.653 132.954C460.227 134.62 461.013 137.026 461.013 140.174ZM602.72 138.23C603.276 133.046 606.932 130.454 613.689 130.454C617.299 130.454 619.984 130.732 621.742 131.287C623.501 131.843 624.705 132.815 625.352 134.203C626.093 135.592 626.51 136.841 626.602 137.952C626.787 138.97 626.88 140.544 626.88 142.673V191.27C626.88 193.399 626.787 195.019 626.602 196.13C626.51 197.148 626.139 198.351 625.491 199.74C624.195 202.146 621.002 203.35 615.911 203.35C610.912 203.35 607.534 202.748 605.775 201.545C604.109 200.249 603.137 198.397 602.859 195.991C599.434 200.897 593.695 203.35 585.642 203.35C577.681 203.35 570.276 199.693 563.426 192.381C556.576 185.068 553.151 176.598 553.151 166.971C553.151 157.252 556.576 148.782 563.426 141.562C570.369 134.249 577.959 130.593 586.197 130.593C589.344 130.593 592.214 131.149 594.806 132.259C597.398 133.37 599.203 134.435 600.221 135.453C601.239 136.379 602.072 137.304 602.72 138.23ZM577.45 167.11C577.45 170.165 578.653 172.942 581.06 175.441C583.467 177.848 586.382 179.051 589.807 179.051C593.232 179.051 596.055 177.802 598.277 175.302C600.591 172.803 601.748 170.072 601.748 167.11C601.748 164.056 600.637 161.232 598.416 158.641C596.287 156.049 593.371 154.753 589.668 154.753C586.058 154.753 583.096 156.049 580.782 158.641C578.561 161.232 577.45 164.056 577.45 167.11ZM680.434 155.03L671.409 154.475V173.636C671.409 176.135 671.779 177.94 672.52 179.051C673.353 180.162 674.834 180.717 676.963 180.717C679.184 180.717 680.851 180.81 681.961 180.995C683.165 181.088 684.414 181.504 685.71 182.245C687.839 183.448 688.904 186.549 688.904 191.548C688.904 197.379 687.608 200.943 685.016 202.239C683.628 202.887 682.378 203.303 681.267 203.489C680.249 203.581 678.722 203.627 676.685 203.627C667.058 203.627 659.746 201.452 654.747 197.102C649.749 192.751 647.249 185.392 647.249 175.025V154.475C645.491 154.753 643.593 154.892 641.557 154.892C639.52 154.892 637.808 154.105 636.419 152.531C635.123 150.958 634.475 148.273 634.475 144.478C634.475 140.683 634.707 137.952 635.17 136.286C635.632 134.527 636.28 133.278 637.113 132.537C638.594 131.334 640.446 130.732 642.667 130.732L647.249 131.287V116.986C647.249 114.857 647.296 113.283 647.388 112.265C647.573 111.247 648.036 110.136 648.777 108.933C649.98 106.619 653.544 105.462 659.468 105.462C665.762 105.462 669.511 107.174 670.715 110.599C671.178 112.08 671.409 114.44 671.409 117.68V131.287C675.482 130.917 678.537 130.732 680.573 130.732C682.702 130.732 684.276 130.825 685.294 131.01C686.405 131.102 687.654 131.519 689.043 132.259C691.449 133.463 692.653 137.026 692.653 142.951C692.653 148.782 691.403 152.346 688.904 153.642C687.515 154.29 686.266 154.707 685.155 154.892C684.137 154.984 682.563 155.03 680.434 155.03ZM720.518 167.11C720.518 170.998 721.814 174.053 724.406 176.274C726.998 178.403 729.728 179.468 732.598 179.468C735.56 179.468 738.291 178.635 740.79 176.969C743.382 175.21 745.464 174.33 747.038 174.33C749.815 174.33 753.194 176.783 757.174 181.689C759.303 184.374 760.367 186.78 760.367 188.91C760.367 192.427 757.822 195.713 752.731 198.768C747.455 202.47 740.975 204.322 733.292 204.322C724.683 204.322 716.399 201.221 708.438 195.019C704.643 192.057 701.542 188.123 699.135 183.217C696.729 178.218 695.525 172.757 695.525 166.833C695.525 160.816 696.729 155.401 699.135 150.587C701.542 145.681 704.643 141.747 708.438 138.785C716.121 132.676 724.313 129.621 733.014 129.621C736.532 129.621 739.957 130.13 743.289 131.149C746.621 132.074 749.074 133 750.648 133.926L752.87 135.314C754.536 136.425 755.832 137.304 756.757 137.952C759.164 139.803 760.367 141.932 760.367 144.339C760.367 146.653 759.395 149.291 757.452 152.254C754.119 157.345 750.926 159.89 747.871 159.89C746.112 159.89 743.613 158.872 740.373 156.836C738.707 155.262 736.3 154.475 733.153 154.475C730.098 154.475 727.229 155.586 724.545 157.807C721.86 160.029 720.518 163.13 720.518 167.11ZM809.067 130.732C818.324 130.732 826.007 134.249 832.116 141.284C838.318 148.319 841.419 156.928 841.419 167.11V191.548C841.419 193.677 841.327 195.297 841.141 196.407C841.049 197.426 840.632 198.629 839.892 200.017C838.688 202.424 835.125 203.627 829.2 203.627C823.554 203.627 820.036 202.424 818.648 200.017C817.907 198.629 817.445 197.379 817.259 196.268C817.167 195.158 817.121 193.492 817.121 191.27V166.971C817.121 163.176 816.056 160.214 813.927 158.085C811.798 155.956 809.067 154.892 805.735 154.892C802.495 154.892 799.626 155.91 797.126 157.946C794.627 159.89 793.192 162.112 792.822 164.611V191.548C792.822 193.677 792.73 195.297 792.544 196.407C792.452 197.426 792.035 198.629 791.295 200.017C790.091 202.424 786.528 203.627 780.603 203.627C774.772 203.627 771.208 202.378 769.912 199.879C769.264 198.49 768.848 197.287 768.663 196.268C768.57 195.25 768.524 193.63 768.524 191.409V108.377C768.524 106.248 768.57 104.675 768.663 103.657C768.848 102.546 769.264 101.342 769.912 100.046C771.208 97.5472 774.818 96.2976 780.742 96.2976C786.574 96.2976 790.091 97.5472 791.295 100.046C792.035 101.435 792.452 102.685 792.544 103.795C792.73 104.814 792.822 106.387 792.822 108.516V139.202C797.45 133.555 802.866 130.732 809.067 130.732Z" fill="#FA5D14"/>
<rect x="58.0607" y="83.0601" width="138.848" height="138.849" rx="30.8552" fill="#FA5D14"/>
<path d="M86.639 168.917C85.3372 168.917 84.4694 168.483 83.6015 167.615L67.5463 151.56C66.6785 150.692 66.2446 149.824 66.2446 148.522C66.2446 147.221 66.6785 146.353 67.5463 145.485L74.0552 138.976C75.357 137.674 77.0927 137.24 78.3944 138.108L81.8658 139.41L84.4694 136.806C84.0355 132.467 85.3372 127.694 88.8086 124.222L107.033 105.998C114.41 98.6208 124.39 94.2816 135.239 93.8477H136.974C138.71 93.8477 140.446 94.7155 140.88 96.4512C141.313 98.1869 141.313 99.9226 140.012 101.224L137.842 103.394C132.201 109.035 129.164 116.846 130.465 124.656C130.465 125.958 130.031 127.26 129.164 128.128L110.939 146.353C107.467 149.824 103.128 151.126 98.355 150.692L95.7514 153.295L97.0532 156.767C97.4871 158.503 97.0532 159.804 96.1853 161.106L89.6765 167.615C88.8086 168.483 87.9408 168.917 86.639 168.917Z" fill="#000C7C"/>
<path d="M182.97 180.199L134.371 135.504L117.448 152.427C117.014 152.861 117.014 152.861 116.58 153.295L161.708 202.329C164.745 205.366 168.217 207.102 172.556 207.102H172.99C176.895 207.102 180.801 205.366 183.838 202.763C186.875 199.725 188.177 195.82 188.177 191.481C187.743 187.142 186.008 183.236 182.97 180.199Z" fill="#000C7C"/>
</svg>
