<svg width="388" height="309" viewBox="0 0 388 309" fill="none" xmlns="http://www.w3.org/2000/svg">
<path d="M193.89 308.14C300.972 308.14 387.78 303.072 387.78 296.82C387.78 290.568 300.972 285.5 193.89 285.5C86.8075 285.5 0 290.568 0 296.82C0 303.072 86.8075 308.14 193.89 308.14Z" fill="#F5F5F5"/>
<path d="M157.37 0.000141255H128.65C126.303 0.000141255 124.052 0.932554 122.392 2.59225C120.732 4.25195 119.8 6.50298 119.8 8.85015V33.8501C119.8 35.0119 120.029 36.1622 120.474 37.2354C120.919 38.3085 121.571 39.2835 122.393 40.1045C123.215 40.9255 124.19 41.5765 125.264 42.0201C126.338 42.4638 127.488 42.6915 128.65 42.6901H134.03L132.03 50.5901L140.03 42.6901H157.43C158.591 42.6901 159.74 42.4615 160.813 42.0172C161.885 41.573 162.86 40.9218 163.681 40.101C164.502 39.2801 165.153 38.3056 165.597 37.2331C166.041 36.1605 166.27 35.011 166.27 33.8501V8.85015C166.27 7.68373 166.039 6.52881 165.592 5.45181C165.144 4.37481 164.487 3.39696 163.66 2.5745C162.833 1.75205 161.852 1.10121 160.772 0.659405C159.693 0.217602 158.536 -0.00644868 157.37 0.000141255Z" fill="#7F1D1D"/>
<path opacity="0.7" d="M157.37 0.000141255H128.65C126.303 0.000141255 124.052 0.932554 122.392 2.59225C120.732 4.25195 119.8 6.50298 119.8 8.85015V33.8501C119.8 35.0119 120.029 36.1622 120.474 37.2354C120.919 38.3085 121.571 39.2835 122.393 40.1045C123.215 40.9255 124.19 41.5765 125.264 42.0201C126.338 42.4638 127.488 42.6915 128.65 42.6901H134.03L132.03 50.5901L140.03 42.6901H157.43C158.591 42.6901 159.74 42.4615 160.813 42.0172C161.885 41.573 162.86 40.9218 163.681 40.101C164.502 39.2801 165.153 38.3056 165.597 37.2331C166.041 36.1605 166.27 35.011 166.27 33.8501V8.85015C166.27 7.68373 166.039 6.52881 165.592 5.45181C165.144 4.37481 164.487 3.39696 163.66 2.5745C162.833 1.75205 161.852 1.10121 160.772 0.659405C159.693 0.217602 158.536 -0.00644868 157.37 0.000141255Z" fill="white"/>
<path d="M143.01 36.3701C140.083 36.3701 137.221 35.5021 134.788 33.8759C132.354 32.2496 130.457 29.9382 129.337 27.2339C128.216 24.5295 127.923 21.5537 128.494 18.6828C129.065 15.8119 130.475 13.1748 132.545 11.105C134.615 9.03516 137.252 7.62559 140.123 7.05453C142.994 6.48347 145.969 6.77655 148.674 7.89673C151.378 9.01691 153.689 10.9139 155.316 13.3477C156.942 15.7816 157.81 18.643 157.81 21.5702C157.805 25.4937 156.244 29.2551 153.469 32.0295C150.695 34.8039 146.934 36.3648 143.01 36.3701ZM143.01 8.77015C140.478 8.77015 138.004 9.52085 135.899 10.9273C133.794 12.3338 132.153 14.3329 131.184 16.6718C130.216 19.0107 129.962 21.5843 130.456 24.0673C130.95 26.5503 132.169 28.831 133.959 30.6211C135.749 32.4112 138.03 33.6303 140.513 34.1242C142.996 34.6181 145.569 34.3646 147.908 33.3958C150.247 32.427 152.246 30.7864 153.653 28.6814C155.059 26.5765 155.81 24.1018 155.81 21.5702C155.807 18.1762 154.458 14.922 152.058 12.5221C149.658 10.1222 146.404 8.7728 143.01 8.77015Z" fill="#7F1D1D"/>
<path d="M140.74 27.2901C140.603 27.2897 140.467 27.2611 140.342 27.206C140.216 27.151 140.103 27.0707 140.01 26.9701L135.65 22.2501C135.56 22.1533 135.49 22.0395 135.445 21.9155C135.399 21.7915 135.378 21.6597 135.384 21.5276C135.389 21.3956 135.421 21.2659 135.477 21.1462C135.533 21.0265 135.612 20.9191 135.71 20.8301C135.905 20.6516 136.163 20.5577 136.427 20.569C136.692 20.5802 136.941 20.6957 137.12 20.8901L140.75 24.8301L148.89 16.1801C149.077 15.9939 149.331 15.8893 149.595 15.8893C149.859 15.8893 150.113 15.9939 150.3 16.1801C150.394 16.2731 150.468 16.3837 150.519 16.5056C150.57 16.6274 150.596 16.7581 150.596 16.8901C150.596 17.0221 150.57 17.1529 150.519 17.2747C150.468 17.3966 150.394 17.5072 150.3 17.6001L141.41 27.0201C141.228 27.1905 140.989 27.2868 140.74 27.2901Z" fill="#7F1D1D"/>
<path d="M107.19 291.86L114.15 291.74L115.88 275.66L108.92 275.78L107.19 291.86Z" fill="#E4897B"/>
<path opacity="0.2" d="M115.88 275.67L114.99 283.95L108.03 284.07L108.92 275.78L115.88 275.67Z" fill="black"/>
<path d="M123.51 217.63C123.51 239.63 117.32 281.52 117.32 281.52L105.68 283.33C105.68 283.33 104.55 244.27 104.11 222.65C104.04 219.47 95.17 204.09 86.03 189.07C81.32 181.33 76.54 173.67 72.84 167.82C68.89 161.56 66.19 157.36 66.19 157.36L93.82 147.02C93.82 147.02 123.49 196.45 123.51 217.63Z" fill="#7F1D1D"/>
<path d="M118.95 282.2L104.93 283.09L104.69 278.58L120.08 277.37L118.95 282.2Z" fill="#263238"/>
<path d="M114.49 290.77C114.488 290.735 114.497 290.7 114.515 290.67C114.532 290.64 114.559 290.616 114.59 290.6C114.91 290.45 117.76 289.12 118.59 289.6C118.669 289.645 118.733 289.711 118.777 289.791C118.821 289.87 118.843 289.96 118.84 290.05C118.851 290.199 118.826 290.349 118.767 290.487C118.708 290.624 118.616 290.746 118.5 290.84C117.71 291.48 115.73 291.15 114.62 290.89C114.589 290.885 114.56 290.871 114.537 290.85C114.514 290.828 114.497 290.801 114.49 290.77ZM115.18 290.69C116.7 291 117.85 290.97 118.29 290.6C118.369 290.54 118.43 290.461 118.469 290.369C118.507 290.278 118.522 290.178 118.51 290.08C118.513 290.046 118.506 290.012 118.49 289.982C118.474 289.952 118.45 289.927 118.42 289.91H118.36C117.89 289.68 116.3 290.21 115.18 290.69Z" fill="#7F1D1D"/>
<path d="M114.55 290.88C114.528 290.862 114.512 290.839 114.501 290.813C114.491 290.787 114.487 290.758 114.49 290.73C114.602 289.751 115.018 288.831 115.68 288.1C115.809 287.996 115.958 287.919 116.118 287.874C116.278 287.83 116.445 287.818 116.61 287.84C117.06 287.91 117.18 288.14 117.2 288.32C117.3 289.11 115.57 290.55 114.72 290.9C114.701 290.91 114.681 290.915 114.66 290.915C114.639 290.915 114.619 290.91 114.6 290.9L114.55 290.88ZM116.55 288.17C116.43 288.154 116.307 288.162 116.19 288.195C116.073 288.228 115.964 288.284 115.87 288.36C115.327 288.94 114.978 289.673 114.87 290.46C115.74 289.98 116.87 288.84 116.87 288.36C116.86 288.325 116.84 288.292 116.814 288.266C116.788 288.24 116.756 288.22 116.72 288.21C116.669 288.19 116.615 288.176 116.56 288.17H116.55Z" fill="#7F1D1D"/>
<path d="M113.95 289.92L106.35 289.68C106.213 289.677 106.079 289.72 105.968 289.801C105.858 289.882 105.778 289.998 105.74 290.13L104.11 296.24C104.069 296.388 104.062 296.543 104.09 296.694C104.118 296.844 104.18 296.986 104.272 297.109C104.364 297.232 104.483 297.332 104.619 297.402C104.756 297.471 104.907 297.508 105.06 297.51C107.81 297.51 111.77 297.51 115.22 297.63C119.22 297.76 121.81 297.57 126.53 297.73C129.38 297.82 130.3 294.97 129.11 294.67C123.72 293.31 120.19 293.56 115.6 290.52C115.117 290.17 114.545 289.962 113.95 289.92Z" fill="#263238"/>
<path opacity="0.2" d="M86.03 189.07C81.32 181.33 76.54 173.67 72.84 167.82C74.3148 165.942 76.0255 164.261 77.93 162.82C77.93 162.82 86 176.86 86.03 189.07Z" fill="black"/>
<path d="M28.69 291.02L35.41 292.84L41.55 277.88L34.83 276.06L28.69 291.02Z" fill="#E4897B"/>
<path opacity="0.2" d="M41.54 277.89L38.38 285.6L31.66 283.77L34.82 276.06L41.54 277.89Z" fill="black"/>
<path d="M94.52 141.05L93.96 150.72L77.2 164.09C77.2 164.09 76.05 209.09 71.28 218.95C66.51 228.81 43.57 280.45 43.57 280.45L31.03 276.58C31.03 276.58 50.96 215.88 52.97 212.29C54.98 208.7 44.42 156.36 58.56 131.61L94.52 141.05Z" fill="#7F1D1D"/>
<path d="M115.19 97.9002C115.9 102.41 116.49 106.9 117.01 111.43C117.53 115.96 118.01 120.49 118.29 125.12L118.47 128.12C118.553 128.857 118.731 129.58 119 130.27C119.671 131.925 120.614 133.456 121.79 134.8C123.105 136.342 124.554 137.764 126.12 139.05C126.93 139.71 127.76 140.39 128.62 141.05C129.48 141.71 130.4 142.3 131.19 142.84L129.19 147.63C128 147.277 126.832 146.856 125.69 146.37C124.58 145.89 123.46 145.37 122.38 144.81C120.141 143.633 118.041 142.207 116.12 140.56C114.001 138.774 112.231 136.611 110.9 134.18C110.167 132.835 109.625 131.395 109.29 129.9C109.19 129.53 109.14 129.13 109.07 128.74L108.93 127.74L108.7 126.11L106.7 112.79C106.03 108.33 105.4 103.85 104.84 99.3802L115.19 97.9002Z" fill="#DC897C"/>
<path d="M100.64 85.5802C96.75 90.9802 103.43 111.58 103.43 111.58L118.89 107.85C118.364 101.838 117.191 95.9003 115.39 90.1402C112.51 81.8302 104.89 79.6402 100.64 85.5802Z" fill="#7F1D1D"/>
<path opacity="0.7" d="M100.64 85.5802C96.75 90.9802 103.43 111.58 103.43 111.58L118.89 107.85C118.364 101.838 117.191 95.9003 115.39 90.1402C112.51 81.8302 104.89 79.6402 100.64 85.5802Z" fill="white"/>
<path opacity="0.2" d="M105.89 96.5802C108.57 99.1402 110.12 105.74 109.14 110.19L103.43 111.58C101.873 106.602 100.69 101.514 99.89 96.3601C101.34 95.1601 102.81 93.6702 105.89 96.5802Z" fill="black"/>
<path d="M72.29 72.8802C71.7557 80.6192 70.6426 88.3074 68.96 95.8802C67.81 101.17 66.49 106.14 65.19 110.62C62.19 121.11 59.19 128.89 58.56 131.62L94.56 141.03C112.34 105.34 109.91 83.0302 109.91 83.0302C107.324 81.5797 104.652 80.2873 101.91 79.1602C101.33 78.9202 100.73 78.7001 100.12 78.4801C95.1052 76.8516 89.9999 75.516 84.83 74.4801C83.83 74.2701 82.83 74.0902 81.83 73.9202C76.83 73.1302 72.29 72.8802 72.29 72.8802Z" fill="#7F1D1D"/>
<path opacity="0.7" d="M72.29 72.8802C71.7557 80.6192 70.6426 88.3074 68.96 95.8802C67.81 101.17 66.49 106.14 65.19 110.62C62.19 121.11 59.19 128.89 58.56 131.62L94.56 141.03C112.34 105.34 109.91 83.0302 109.91 83.0302C107.324 81.5797 104.652 80.2873 101.91 79.1602C101.33 78.9202 100.73 78.7001 100.12 78.4801C95.1052 76.8516 89.9999 75.516 84.83 74.4801C83.83 74.2701 82.83 74.0902 81.83 73.9202C76.83 73.1302 72.29 72.8802 72.29 72.8802Z" fill="white"/>
<path d="M97.68 80.8602C95.83 77.5602 97.88 74.7202 100.35 72.3502L96.5 60.2702C94.64 65.0902 90.5 73.4801 85.7 74.4801C86.1994 76.8081 87.2256 78.9907 88.7 80.8602H97.68Z" fill="#E4897B"/>
<path opacity="0.2" d="M98.07 65.2001L100.35 72.3401C99.6561 72.9901 99.0203 73.6995 98.45 74.4602C96.77 73.0602 95.5 69.4602 96.51 67.4602C96.8842 66.616 97.4134 65.8494 98.07 65.2001Z" fill="black"/>
<path d="M121.39 60.8702C121.2 61.7902 113.01 59.8702 111.74 58.0502C110.47 56.2302 114.61 55.2902 117.19 56.6302C118.929 57.6624 120.374 59.1219 121.39 60.8702Z" fill="#7F1D1D"/>
<path opacity="0.3" d="M121.39 60.8702C121.2 61.7902 113.01 59.8702 111.74 58.0502C110.47 56.2302 114.61 55.2902 117.19 56.6302C118.929 57.6624 120.374 59.1219 121.39 60.8702Z" fill="black"/>
<path d="M117.57 56.2301C117.57 59.0301 115.4 64.1101 112.4 61.2301C109.4 58.3501 117.62 51.4201 117.57 56.2301Z" fill="#263238"/>
<path d="M113.11 68.0502C112.618 68.892 112.067 69.6974 111.46 70.4602C107.34 75.6502 99.1 75.3901 96.03 69.5601C95.8168 69.1711 95.6329 68.7666 95.48 68.3502C93.81 63.7202 95.62 60.1001 98.14 53.7001C98.713 52.2016 99.6569 50.873 100.883 49.8388C102.11 48.8045 103.579 48.0984 105.153 47.7867C106.726 47.4749 108.354 47.5677 109.882 48.0563C111.41 48.5448 112.789 49.4132 113.89 50.5802C118.17 55.0802 116.24 62.8002 113.11 68.0502Z" fill="#E4897B"/>
<path d="M102.79 42.5802C101.366 43.0235 100.067 43.798 99 44.8401C95.28 48.2601 92.57 53.3802 97.28 58.5502C100.69 57.2702 102.37 52.5501 102.79 51.2001V42.5802Z" fill="#263238"/>
<path d="M93.31 57.7601C93.2024 58.6084 93.2646 59.4697 93.493 60.2937C93.7213 61.1178 94.1112 61.8882 94.64 62.5601C96.07 64.3501 98.14 63.4001 98.87 61.3601C99.54 59.5201 99.6 56.3601 97.62 55.3601C97.1848 55.1461 96.7042 55.0407 96.2194 55.053C95.7346 55.0654 95.26 55.1951 94.8363 55.431C94.4125 55.667 94.0523 56.0021 93.7865 56.4078C93.5207 56.8134 93.3572 57.2775 93.31 57.7601Z" fill="#E4897B"/>
<path d="M106.83 59.7601C106.59 60.2601 106.67 60.7602 107.01 60.9502C107.35 61.1402 107.8 60.8102 108.01 60.3002C108.22 59.7902 108.17 59.3002 107.83 59.1102C107.49 58.9202 107.07 59.2501 106.83 59.7601Z" fill="#263238"/>
<path d="M112.6 62.3802C112.36 62.8802 112.44 63.3802 112.77 63.5702C113.1 63.7602 113.57 63.4302 113.77 62.9302C113.97 62.4302 113.92 61.9301 113.59 61.7301C113.26 61.5301 112.83 61.8702 112.6 62.3802Z" fill="#263238"/>
<path d="M110.65 61.8002C110.576 63.5857 110.751 65.3729 111.17 67.1102C110.71 67.1824 110.24 67.1574 109.791 67.0368C109.341 66.9162 108.922 66.7028 108.56 66.4102L110.65 61.8002Z" fill="#DE5753"/>
<path d="M104.89 67.1101C105.096 67.239 105.31 67.3559 105.53 67.4602C105.57 67.4752 105.614 67.4755 105.655 67.4608C105.695 67.4461 105.729 67.4175 105.75 67.3802C105.76 67.3606 105.766 67.3392 105.767 67.3173C105.769 67.2954 105.765 67.2734 105.758 67.2528C105.75 67.2321 105.739 67.2132 105.724 67.1973C105.708 67.1814 105.69 67.1687 105.67 67.1602C105.03 66.889 104.464 66.4689 104.018 65.935C103.573 65.4011 103.262 64.7686 103.11 64.0901C103.097 64.053 103.071 64.0216 103.037 64.0013C103.003 63.981 102.963 63.9732 102.924 63.9791C102.885 63.985 102.85 64.0043 102.823 64.0337C102.797 64.0631 102.782 64.1007 102.78 64.1401C102.909 64.7536 103.162 65.334 103.526 65.845C103.889 66.356 104.353 66.7867 104.89 67.1101Z" fill="#263238"/>
<path d="M105.89 57.1002C105.942 57.13 106 57.1457 106.06 57.1457C106.12 57.1457 106.178 57.13 106.23 57.1002C106.589 56.8941 106.991 56.775 107.405 56.7525C107.818 56.7299 108.231 56.8044 108.61 56.9702C108.648 56.9913 108.69 57.0048 108.733 57.0097C108.776 57.0146 108.82 57.0109 108.862 56.9988C108.904 56.9868 108.943 56.9665 108.977 56.9393C109.011 56.912 109.039 56.8783 109.06 56.8401C109.081 56.8029 109.094 56.7618 109.099 56.7193C109.104 56.6767 109.1 56.6337 109.088 56.5927C109.076 56.5517 109.056 56.5135 109.028 56.4804C109.001 56.4474 108.968 56.4201 108.93 56.4002C108.456 56.1815 107.937 56.0783 107.416 56.0992C106.894 56.1201 106.385 56.2643 105.93 56.5202C105.891 56.5392 105.857 56.5658 105.829 56.5985C105.801 56.6312 105.779 56.6692 105.766 56.7103C105.753 56.7514 105.749 56.7947 105.753 56.8377C105.757 56.8806 105.769 56.9223 105.79 56.9602C105.812 57.0142 105.846 57.0623 105.89 57.1002Z" fill="#263238"/>
<path d="M116 61.5802C116.054 61.621 116.123 61.639 116.19 61.6302C116.233 61.6302 116.275 61.6216 116.315 61.6049C116.354 61.5882 116.39 61.5637 116.42 61.5329C116.45 61.5021 116.473 61.4657 116.489 61.4257C116.504 61.3857 116.511 61.343 116.51 61.3002C116.511 60.7796 116.387 60.2665 116.148 59.8037C115.91 59.3409 115.564 58.9419 115.14 58.6402C115.063 58.5976 114.974 58.5853 114.889 58.6057C114.803 58.6261 114.729 58.6776 114.68 58.7502C114.636 58.8246 114.622 58.9135 114.643 58.9977C114.663 59.0819 114.716 59.1546 114.79 59.2002C115.124 59.4403 115.394 59.7577 115.579 60.1251C115.764 60.4925 115.857 60.899 115.85 61.3102C115.848 61.3645 115.861 61.4184 115.888 61.4659C115.914 61.5135 115.953 61.553 116 61.5802Z" fill="#263238"/>
<path d="M117.31 58.0502C112.71 54.4802 106.84 52.8601 102.25 52.1201C99.7821 51.7034 97.2829 51.4993 94.78 51.5101C94.98 48.9301 98.28 43.0302 100.35 42.6002C103.828 42.187 107.348 42.305 110.79 42.9501C113.21 43.8501 118.02 47.3401 118.38 48.8101C119.13 51.8801 117.31 58.0502 117.31 58.0502Z" fill="#7F1D1D"/>
<path d="M102.24 52.1101C102.24 52.1101 108.34 50.7502 113.68 52.8202C119.02 54.8902 121.39 60.8202 121.39 60.8202C121.39 60.8202 120.92 59.5901 116.51 58.0001C111.62 56.2901 107.48 56.2601 102.24 52.1101Z" fill="#7F1D1D"/>
<path opacity="0.1" d="M110.79 42.9501C110.79 42.9501 105.34 45.3002 104.96 45.6802C104.58 46.0602 102.25 52.1201 102.25 52.1201C99.7821 51.7034 97.2829 51.4993 94.78 51.5101C94.98 48.9301 98.28 43.0302 100.35 42.6002C103.828 42.187 107.348 42.305 110.79 42.9501Z" fill="black"/>
<path opacity="0.1" d="M102.24 52.1101C102.24 52.1101 108.34 50.7502 113.68 52.8202C119.02 54.8902 121.39 60.8202 121.39 60.8202C121.39 60.8202 120.92 59.5901 116.51 58.0001C111.62 56.2901 107.48 56.2601 102.24 52.1101Z" fill="black"/>
<path opacity="0.3" d="M113.11 68.0502C112.618 68.892 112.067 69.6974 111.46 70.4602C107.34 75.6502 99.1 75.3902 96.03 69.5602C95.8434 65.1897 96.9795 60.8646 99.29 57.1502L100.35 56.0101C100.35 56.0101 99.03 61.1002 99.42 62.1002C99.81 63.1002 102.64 61.8202 103.95 62.6502C104.814 63.2832 105.452 64.1771 105.77 65.2001L104.96 65.7102C104.96 65.7102 103.37 63.1702 102.79 63.1002C102.21 63.0302 99.44 65.5602 99.69 66.4302C99.94 67.3002 99.52 67.7402 100.35 68.1302C101.18 68.5202 103.2 67.1902 103.2 67.1902L104.3 68.1902C104.3 68.1902 102.54 70.0701 102.81 70.4501C103.274 70.7953 103.813 71.0259 104.383 71.1232C104.953 71.2206 105.538 71.1818 106.09 71.0101C107.35 70.5001 107.3 67.7502 107.54 67.4702C107.78 67.1902 105.6 66.2402 105.6 66.2402L106.27 65.2402C106.27 65.2402 109.02 66.9901 109.12 67.5101C109.22 68.0301 108.68 69.6102 109.12 69.6102C110.544 69.3724 111.903 68.8412 113.11 68.0502Z" fill="black"/>
<path d="M115.54 51.7602L115.39 51.1702L115.82 50.7502L116.82 51.0102C116.775 50.8109 116.677 50.6276 116.536 50.4797C116.395 50.3318 116.217 50.2248 116.02 50.1702C115.833 50.1171 115.635 50.1151 115.447 50.1644C115.259 50.2136 115.087 50.3123 114.95 50.4502C114.908 50.4201 114.861 50.3996 114.81 50.3902L112.17 49.6402H112.03C111.978 49.4476 111.875 49.2724 111.732 49.1329C111.589 48.9934 111.412 48.8946 111.218 48.8467C111.024 48.7987 110.821 48.8035 110.63 48.8603C110.439 48.9172 110.266 49.0242 110.13 49.1702L111.13 49.4402L111.28 50.0202L110.85 50.4402L109.85 50.1802C109.896 50.379 109.994 50.5618 110.135 50.7095C110.276 50.8573 110.454 50.9646 110.65 51.0202C110.836 51.0724 111.033 51.0749 111.221 51.0275C111.409 50.9802 111.581 50.8846 111.72 50.7502H111.86L114.5 51.5002C114.546 51.5099 114.594 51.5099 114.64 51.5002C114.692 51.6928 114.795 51.8679 114.938 52.0074C115.081 52.1469 115.258 52.2457 115.452 52.2936C115.646 52.3416 115.849 52.3369 116.04 52.28C116.231 52.2231 116.404 52.1161 116.54 51.9702L115.54 51.7602Z" fill="white"/>
<path d="M129.95 142.22L136.69 144.37L131.32 150.09C131.32 150.09 125.42 147.81 126.72 144.82L129.95 142.22Z" fill="#E4897B"/>
<path d="M140.1 151.81L138.08 155.46L131.32 150.09L136.69 144.37L140.1 151.81Z" fill="#E4897B"/>
<path d="M71.89 87.2802C68.8 90.8202 65.65 94.4801 62.66 98.1201C61.14 99.9301 59.66 101.78 58.31 103.6C56.9958 105.3 55.7997 107.087 54.73 108.95C54.5502 109.274 54.3899 109.608 54.25 109.95C54.25 110.05 54.18 110.13 54.19 110.04C54.2 109.95 54.19 110.04 54.19 109.95V109.5C54.1412 109.025 54.0127 108.562 53.81 108.13C53.7142 107.937 53.6074 107.751 53.49 107.57C53.37 107.4 53.22 107.23 53.14 107.13C53.06 107.03 52.92 106.92 52.81 106.82L52.55 106.62C52.4268 106.535 52.2962 106.462 52.16 106.4L51.94 106.3H51.83C51.75 106.3 51.83 106.3 51.98 106.36C52.3807 106.455 52.7889 106.516 53.2 106.54C54.2 106.62 55.31 106.64 56.44 106.62C57.57 106.6 58.74 106.62 59.92 106.53C64.62 106.31 69.46 105.95 74.27 105.66L75.27 110.77C70.5457 112.356 65.7219 113.629 60.83 114.58C58.252 115.109 55.638 115.443 53.01 115.58C52.206 115.609 51.401 115.586 50.6 115.51C50.0483 115.452 49.5028 115.345 48.97 115.19C48.7862 115.142 48.6058 115.082 48.43 115.01C48.23 114.93 48.05 114.87 47.79 114.74C47.5167 114.607 47.2557 114.449 47.01 114.27C46.8585 114.171 46.7147 114.061 46.58 113.94C46.4 113.79 46.24 113.63 46.08 113.47C45.9011 113.276 45.7372 113.069 45.59 112.85C45.4228 112.615 45.2788 112.363 45.16 112.1C44.8883 111.532 44.7223 110.918 44.67 110.29C44.6601 110.137 44.6601 109.983 44.67 109.83V109.38C44.6586 109.2 44.6586 109.02 44.67 108.84C44.7318 108.268 44.8422 107.703 45 107.15C45.238 106.331 45.532 105.529 45.88 104.75C47.0371 102.306 48.3986 99.9647 49.95 97.7502C51.39 95.5802 52.89 93.5802 54.41 91.5802C57.49 87.5802 60.65 83.8901 64.06 80.2001L71.89 87.2802Z" fill="#DC897C"/>
<path d="M70.17 72.9602C63.59 73.9602 53.27 90.9602 53.27 90.9602L67.55 100.24C71.2126 95.6579 74.4494 90.7508 77.22 85.5802C81.53 77.3002 78.13 71.7002 70.17 72.9602Z" fill="#7F1D1D"/>
<path opacity="0.7" d="M70.17 72.9602C63.59 73.9602 53.27 90.9602 53.27 90.9602L67.55 100.24C71.2126 95.6579 74.4494 90.7508 77.22 85.5802C81.53 77.3002 78.13 71.7002 70.17 72.9602Z" fill="white"/>
<path d="M84.75 74.5101L88.27 71.9501L94.83 80.7301L97.36 76.3401L100.04 78.5101C100.742 79.7263 101.112 81.1059 101.112 82.5101C101.112 83.9144 100.742 85.294 100.04 86.5101L94.78 82.2001L89.12 85.8302C89.12 85.8302 83.1 78.8201 84.75 74.5101Z" fill="#7F1D1D"/>
<path d="M76.79 61.5002C78.7782 64.0259 80.0596 67.0347 80.503 70.2184C80.9463 73.4021 80.5357 76.6465 79.3132 79.6194C78.0907 82.5923 76.1002 85.1869 73.5454 87.1378C70.9906 89.0886 67.9633 90.3255 64.7734 90.7219C61.5835 91.1183 58.3455 90.66 55.391 89.3938C52.4364 88.1276 49.8714 86.0991 47.9584 83.5158C46.0454 80.9326 44.8532 77.8874 44.5038 74.692C44.1544 71.4966 44.6604 68.2658 45.97 65.3302L55.88 77.9302L65.54 76.5402L69.17 67.4802L59.26 54.8802C62.5079 54.2791 65.8583 54.5782 68.9483 55.7451C72.0384 56.912 74.7502 58.9022 76.79 61.5002Z" fill="#7F1D1D"/>
<path d="M146.89 209.22C144.906 206.695 143.628 203.688 143.188 200.507C142.747 197.327 143.159 194.086 144.382 191.116C145.604 188.147 147.594 185.556 150.146 183.607C152.699 181.659 155.723 180.424 158.91 180.028C162.097 179.632 165.332 180.089 168.284 181.353C171.236 182.618 173.799 184.643 175.711 187.223C177.623 189.803 178.816 192.844 179.167 196.036C179.518 199.228 179.016 202.456 177.71 205.39L167.8 192.79L158.14 194.18L154.51 203.25L164.42 215.84C161.172 216.441 157.822 216.142 154.732 214.975C151.642 213.808 148.93 211.818 146.89 209.22Z" fill="#7F1D1D"/>
<g opacity="0.2">
<path d="M76.79 61.5002C78.7782 64.0259 80.0596 67.0347 80.503 70.2184C80.9463 73.4021 80.5357 76.6465 79.3132 79.6194C78.0907 82.5923 76.1002 85.1869 73.5454 87.1378C70.9906 89.0886 67.9633 90.3255 64.7734 90.7219C61.5835 91.1183 58.3455 90.66 55.391 89.3938C52.4364 88.1276 49.8714 86.0991 47.9584 83.5158C46.0454 80.9326 44.8532 77.8874 44.5038 74.692C44.1544 71.4966 44.6604 68.2658 45.97 65.3302L55.88 77.9302L65.54 76.5402L69.17 67.4802L59.26 54.8802C62.5079 54.2791 65.8583 54.5782 68.9483 55.7451C72.0384 56.912 74.7502 58.9022 76.79 61.5002Z" fill="white"/>
<path d="M146.89 209.22C144.906 206.695 143.628 203.688 143.188 200.507C142.747 197.327 143.159 194.086 144.382 191.116C145.604 188.147 147.594 185.556 150.146 183.607C152.699 181.659 155.723 180.424 158.91 180.028C162.097 179.632 165.332 180.089 168.284 181.353C171.236 182.618 173.799 184.643 175.711 187.223C177.623 189.803 178.816 192.844 179.167 196.036C179.518 199.228 179.016 202.456 177.71 205.39L167.8 192.79L158.14 194.18L154.51 203.25L164.42 215.84C161.172 216.441 157.822 216.142 154.732 214.975C151.642 213.808 148.93 211.818 146.89 209.22Z" fill="white"/>
</g>
<path d="M155.98 191.51C154.992 192.287 153.86 192.862 152.65 193.201C151.44 193.541 150.175 193.639 148.926 193.489C147.678 193.34 146.472 192.946 145.376 192.33C144.28 191.714 143.317 190.889 142.54 189.9L66.05 92.6602C65.2725 91.6726 64.6971 90.5417 64.3568 89.3318C64.0164 88.1219 63.9177 86.8568 64.0662 85.6087C64.2148 84.3607 64.6078 83.1542 65.2227 82.058C65.8376 80.9618 66.6624 79.9975 67.65 79.2202C68.6375 78.4426 69.7685 77.8673 70.9784 77.5269C72.1883 77.1865 73.4534 77.0878 74.7014 77.2364C75.9494 77.385 77.156 77.7779 78.2522 78.3928C79.3483 79.0077 80.3126 79.8325 81.09 80.8202L157.59 178.07C158.367 179.058 158.942 180.19 159.281 181.4C159.621 182.61 159.719 183.876 159.569 185.124C159.42 186.372 159.026 187.578 158.41 188.674C157.794 189.77 156.968 190.733 155.98 191.51Z" fill="#7F1D1D"/>
<path opacity="0.2" d="M155.98 191.51C154.992 192.287 153.86 192.862 152.65 193.201C151.44 193.541 150.175 193.639 148.926 193.489C147.678 193.34 146.472 192.946 145.376 192.33C144.28 191.714 143.317 190.889 142.54 189.9L66.05 92.6602C65.2725 91.6726 64.6971 90.5417 64.3568 89.3318C64.0164 88.1219 63.9177 86.8568 64.0662 85.6087C64.2148 84.3607 64.6078 83.1542 65.2227 82.058C65.8376 80.9618 66.6624 79.9975 67.65 79.2202C68.6375 78.4426 69.7685 77.8673 70.9784 77.5269C72.1883 77.1865 73.4534 77.0878 74.7014 77.2364C75.9494 77.385 77.156 77.7779 78.2522 78.3928C79.3483 79.0077 80.3126 79.8325 81.09 80.8202L157.59 178.07C158.367 179.058 158.942 180.19 159.281 181.4C159.621 182.61 159.719 183.876 159.569 185.124C159.42 186.372 159.026 187.578 158.41 188.674C157.794 189.77 156.968 190.733 155.98 191.51Z" fill="white"/>
<path opacity="0.2" d="M151.5 185.81C150.993 186.21 150.413 186.506 149.792 186.681C149.17 186.856 148.521 186.907 147.88 186.831C147.239 186.754 146.62 186.553 146.057 186.237C145.494 185.921 144.999 185.497 144.6 184.99L71.31 91.8202C70.5049 90.7941 70.1391 89.4909 70.2928 88.1958C70.4465 86.9007 71.1071 85.7192 72.13 84.9102C73.1582 84.1087 74.4616 83.7462 75.756 83.9017C77.0503 84.0572 78.2308 84.718 79.04 85.7402L152.33 178.91C153.133 179.936 153.497 181.238 153.342 182.532C153.186 183.825 152.524 185.004 151.5 185.81Z" fill="black"/>
<path d="M72.7 106.89L77.94 102.18L80.53 110.71C80.53 110.71 75.19 113.71 73.29 111.03L72.7 106.89Z" fill="#E4897B"/>
<path d="M83.69 101.78L85.51 108.92L80.53 110.71L77.93 102.18L83.69 101.78Z" fill="#E4897B"/>
<path d="M42.55 284.03L29.31 279.34L30.86 275.09L45.49 280.03L42.55 284.03Z" fill="#263238"/>
<path d="M36.44 290.77C36.4383 290.735 36.4469 290.7 36.4646 290.67C36.4824 290.64 36.5086 290.616 36.54 290.6C36.86 290.45 39.71 289.12 40.54 289.6C40.6186 289.645 40.6833 289.711 40.7274 289.791C40.7714 289.87 40.793 289.96 40.79 290.05C40.8011 290.199 40.776 290.349 40.7168 290.487C40.6576 290.624 40.5661 290.746 40.45 290.84C39.66 291.48 37.68 291.15 36.57 290.89C36.5389 290.885 36.51 290.871 36.4869 290.85C36.4638 290.828 36.4475 290.801 36.44 290.77ZM37.13 290.69C38.65 291 39.8 290.97 40.24 290.6C40.3187 290.54 40.3803 290.461 40.4189 290.369C40.4575 290.278 40.4716 290.178 40.46 290.08C40.4626 290.046 40.4555 290.012 40.4396 289.982C40.4237 289.952 40.3995 289.927 40.37 289.91H40.31C39.79 289.68 38.25 290.21 37.13 290.69Z" fill="#7F1D1D"/>
<path d="M36.51 290.88C36.4872 290.863 36.4689 290.84 36.4567 290.814C36.4446 290.788 36.4388 290.759 36.44 290.73C36.5523 289.751 36.9684 288.831 37.63 288.1C37.7592 287.996 37.9083 287.919 38.0682 287.874C38.2281 287.83 38.3954 287.818 38.56 287.84C39.01 287.91 39.13 288.14 39.15 288.32C39.25 289.11 37.52 290.55 36.67 290.9C36.6515 290.91 36.6309 290.915 36.61 290.915C36.5891 290.915 36.5685 290.91 36.55 290.9L36.51 290.88ZM38.51 288.17C38.3897 288.154 38.2673 288.162 38.1504 288.195C38.0334 288.228 37.9244 288.284 37.83 288.36C37.287 288.94 36.9376 289.673 36.83 290.46C37.7 289.98 38.83 288.84 38.83 288.36C38.8197 288.325 38.8005 288.292 38.7743 288.266C38.748 288.24 38.7156 288.22 38.68 288.21C38.6255 288.189 38.5683 288.175 38.51 288.17Z" fill="#7F1D1D"/>
<path d="M35.89 289.92L28.29 289.68C28.1529 289.677 28.0186 289.72 27.9082 289.801C27.7978 289.882 27.7176 289.998 27.68 290.13L26.05 296.24C26.0073 296.392 26.0011 296.551 26.0319 296.706C26.0627 296.861 26.1295 297.006 26.227 297.13C26.3245 297.253 26.4498 297.352 26.5929 297.418C26.7359 297.485 26.8925 297.516 27.05 297.51C29.8 297.51 33.76 297.51 37.21 297.63C41.21 297.76 43.8 297.57 48.52 297.73C51.37 297.82 52.29 294.97 51.1 294.67C45.71 293.31 42.18 293.56 37.59 290.52C37.0928 290.161 36.5026 289.953 35.89 289.92Z" fill="#263238"/>
<path d="M57.36 132.13L67.21 134.79L66.33 138.4L55.89 135.89L57.36 132.13Z" fill="#263238"/>
<path d="M68.33 135.08L91.58 141.35L91.04 144.37L67.33 138.65L68.33 135.08Z" fill="#263238"/>
<path d="M94.85 142.23L94.52 145.2L91.82 144.56L92.43 141.58L94.85 142.23Z" fill="#263238"/>
<path d="M77.83 137.88L77.21 140.8C77.183 140.921 77.2046 141.047 77.2701 141.152C77.3356 141.257 77.4397 141.332 77.56 141.36L83.04 142.65C83.1017 142.663 83.1654 142.664 83.2275 142.653C83.2896 142.641 83.3488 142.618 83.4017 142.583C83.4547 142.549 83.5003 142.505 83.5361 142.453C83.5718 142.4 83.5969 142.342 83.61 142.28L84.18 139.53C84.2045 139.412 84.1829 139.29 84.1196 139.187C84.0564 139.085 83.9563 139.011 83.84 138.98L78.42 137.52C78.3576 137.504 78.2925 137.5 78.2287 137.51C78.1649 137.519 78.1036 137.541 78.0485 137.575C77.9934 137.608 77.9457 137.653 77.9081 137.705C77.8706 137.758 77.844 137.817 77.83 137.88Z" fill="white"/>
<path d="M104.49 101.42L104.34 100.84L104.77 100.41L105.77 100.68C105.726 100.485 105.631 100.306 105.495 100.16C105.359 100.014 105.187 99.9063 104.996 99.8484C104.805 99.7905 104.602 99.7842 104.408 99.8302C104.213 99.8761 104.035 99.9727 103.89 100.11L103.76 100.05L101.12 99.3002H100.98C100.927 99.1131 100.826 98.9431 100.687 98.8064C100.549 98.6698 100.378 98.5712 100.19 98.5202C99.9934 98.4665 99.7859 98.4679 99.5901 98.5244C99.3943 98.5808 99.2178 98.6901 99.08 98.8401L100.03 99.1002L100.19 99.6802L99.76 100.11L98.76 99.8401C98.7994 100.037 98.8913 100.219 99.0259 100.368C99.1606 100.516 99.3329 100.625 99.5247 100.684C99.7165 100.742 99.9205 100.748 100.115 100.7C100.31 100.651 100.488 100.551 100.63 100.41C100.671 100.434 100.715 100.454 100.76 100.47L103.41 101.22H103.55C103.602 101.413 103.705 101.588 103.848 101.727C103.991 101.867 104.168 101.966 104.362 102.014C104.556 102.062 104.759 102.057 104.95 102C105.141 101.943 105.314 101.836 105.45 101.69L104.49 101.42Z" fill="#7F1D1D"/>
<path d="M213.6 294.04V297.04C213.6 297.22 213.672 297.393 213.799 297.521C213.927 297.648 214.1 297.72 214.28 297.72H299.43C300.156 297.719 300.87 297.54 301.511 297.198C302.152 296.857 302.699 296.363 303.104 295.761C303.51 295.159 303.762 294.467 303.838 293.745C303.914 293.023 303.811 292.293 303.54 291.62L276.54 224.8L232.94 225.1L234.43 233.77L244.05 289.89C244.117 290.315 244.093 290.749 243.978 291.164C243.862 291.578 243.659 291.963 243.383 292.292C243.106 292.621 242.761 292.887 242.372 293.071C241.984 293.255 241.56 293.354 241.13 293.36H214.28C214.19 293.359 214.101 293.375 214.018 293.409C213.935 293.443 213.86 293.493 213.796 293.556C213.733 293.62 213.683 293.695 213.649 293.778C213.615 293.861 213.599 293.95 213.6 294.04Z" fill="#7F1D1D"/>
<path opacity="0.6" d="M213.6 294.04V297.04C213.6 297.22 213.672 297.393 213.799 297.521C213.927 297.648 214.1 297.72 214.28 297.72H299.43C300.156 297.719 300.87 297.54 301.511 297.198C302.152 296.857 302.699 296.363 303.104 295.761C303.51 295.159 303.762 294.467 303.838 293.745C303.914 293.023 303.811 292.293 303.54 291.62L286.82 250.2L276.56 224.8L232.96 225.1L234.45 233.77L238.63 258.17L244.07 289.89C244.137 290.315 244.113 290.749 243.998 291.164C243.882 291.578 243.679 291.963 243.403 292.292C243.126 292.621 242.781 292.887 242.392 293.071C242.004 293.255 241.58 293.354 241.15 293.36H214.28C214.19 293.359 214.101 293.375 214.018 293.409C213.935 293.443 213.86 293.493 213.796 293.556C213.733 293.62 213.683 293.695 213.649 293.778C213.615 293.861 213.599 293.95 213.6 294.04Z" fill="white"/>
<path opacity="0.2" d="M241.15 293.37H296.54C296.855 293.358 297.164 293.271 297.439 293.117C297.715 292.963 297.95 292.746 298.126 292.484C298.301 292.221 298.412 291.921 298.449 291.608C298.487 291.294 298.449 290.976 298.34 290.68L274.68 233.78H234.45L244.07 289.9C244.137 290.325 244.113 290.759 243.998 291.174C243.882 291.588 243.679 291.973 243.403 292.302C243.126 292.631 242.781 292.897 242.392 293.081C242.004 293.265 241.58 293.364 241.15 293.37Z" fill="black"/>
<path opacity="0.1" d="M232.96 225.11L234.45 233.78L238.63 258.18L286.82 250.21L276.56 224.81L232.96 225.11Z" fill="black"/>
<path d="M148.18 100.58H350.04C350.718 100.58 351.39 100.714 352.017 100.974C352.644 101.234 353.213 101.615 353.692 102.095C354.171 102.575 354.551 103.145 354.81 103.772C355.069 104.4 355.201 105.072 355.2 105.75V242.36C355.2 243.73 354.657 245.043 353.689 246.012C352.722 246.982 351.409 247.528 350.04 247.53H148.18C146.809 247.53 145.494 246.985 144.524 246.016C143.555 245.046 143.01 243.731 143.01 242.36V105.71C143.018 104.345 143.566 103.039 144.535 102.077C145.504 101.116 146.815 100.577 148.18 100.58Z" fill="#7F1D1D"/>
<path opacity="0.7" d="M148.18 100.58H350.04C350.718 100.58 351.39 100.714 352.017 100.974C352.644 101.234 353.213 101.615 353.692 102.095C354.171 102.575 354.551 103.145 354.81 103.772C355.069 104.4 355.201 105.072 355.2 105.75V242.36C355.2 243.73 354.657 245.043 353.689 246.012C352.722 246.982 351.409 247.528 350.04 247.53H148.18C146.809 247.53 145.494 246.985 144.524 246.016C143.555 245.046 143.01 243.731 143.01 242.36V105.71C143.018 104.345 143.566 103.039 144.535 102.077C145.504 101.116 146.815 100.577 148.18 100.58Z" fill="white"/>
<path opacity="0.2" d="M345.76 247.52H350.04C351.409 247.52 352.721 246.977 353.689 246.009C354.656 245.041 355.2 243.729 355.2 242.36V105.71C355.201 105.032 355.069 104.36 354.81 103.732C354.551 103.105 354.171 102.535 353.692 102.055C353.213 101.575 352.644 101.194 352.017 100.934C351.39 100.674 350.718 100.54 350.04 100.54H345.76C346.438 100.54 347.11 100.674 347.737 100.934C348.364 101.194 348.933 101.575 349.412 102.055C349.891 102.535 350.271 103.105 350.53 103.732C350.789 104.36 350.921 105.032 350.92 105.71V242.36C350.92 243.729 350.376 245.041 349.409 246.009C348.441 246.977 347.129 247.52 345.76 247.52Z" fill="black"/>
<path d="M346.26 105.6H147.66V237.37H346.26V105.6Z" fill="#263238"/>
<path d="M346.26 105.6H147.66V115.71H346.26V105.6Z" fill="#7F1D1D"/>
<path opacity="0.2" d="M341.62 111.02C341.62 111.509 341.475 111.986 341.204 112.392C340.932 112.799 340.547 113.115 340.095 113.302C339.644 113.489 339.147 113.538 338.668 113.443C338.189 113.347 337.749 113.112 337.403 112.767C337.058 112.421 336.823 111.981 336.727 111.502C336.632 111.023 336.681 110.526 336.868 110.075C337.055 109.624 337.372 109.238 337.778 108.966C338.184 108.695 338.661 108.55 339.15 108.55C339.804 108.553 340.431 108.814 340.894 109.276C341.356 109.739 341.617 110.366 341.62 111.02Z" fill="black"/>
<path opacity="0.2" d="M333.46 111.02C333.466 111.51 333.326 111.99 333.058 112.4C332.791 112.811 332.407 113.132 331.956 113.323C331.505 113.515 331.008 113.568 330.527 113.476C330.046 113.384 329.603 113.152 329.254 112.807C328.906 112.463 328.668 112.023 328.57 111.543C328.472 111.063 328.519 110.565 328.705 110.112C328.891 109.659 329.208 109.271 329.615 108.999C330.021 108.726 330.5 108.58 330.99 108.58C331.64 108.58 332.264 108.836 332.726 109.293C333.188 109.75 333.452 110.37 333.46 111.02Z" fill="black"/>
<path opacity="0.2" d="M325.31 111.02C325.316 111.512 325.175 111.994 324.905 112.406C324.635 112.817 324.248 113.138 323.794 113.328C323.341 113.518 322.84 113.568 322.358 113.472C321.876 113.376 321.433 113.138 321.086 112.789C320.74 112.44 320.506 111.995 320.414 111.512C320.322 111.029 320.376 110.529 320.57 110.077C320.764 109.625 321.088 109.241 321.501 108.974C321.915 108.707 322.398 108.57 322.89 108.58C323.53 108.596 324.14 108.858 324.591 109.313C325.042 109.768 325.3 110.38 325.31 111.02Z" fill="black"/>
<path opacity="0.4" d="M346.26 115.76H147.66V149.97H346.26V115.76Z" fill="white"/>
<path d="M152.21 117.28L147.66 125.43V117.28H152.21Z" fill="#263238"/>
<path d="M176.74 117.28L159.31 148.56H147.66V144.73L162.96 117.28H176.74Z" fill="#263238"/>
<path d="M183.77 148.69H169.99L187.5 117.27H201.27L183.77 148.69Z" fill="#263238"/>
<path d="M208.3 148.69H194.52L212.03 117.27H225.81L208.3 148.69Z" fill="#263238"/>
<path d="M232.83 148.69H219.05L236.56 117.27H250.34L232.83 148.69Z" fill="#263238"/>
<path d="M257.36 148.69H243.59L261.09 117.27H274.87L257.36 148.69Z" fill="#263238"/>
<path d="M281.9 148.46H268.12L285.63 117.04H299.4L281.9 148.46Z" fill="#263238"/>
<path d="M306.43 148.46H292.65L310.16 117.04H323.94L306.43 148.46Z" fill="#263238"/>
<path d="M346.26 117.17V121.01L330.96 148.46H317.18L334.62 117.17H346.26Z" fill="#263238"/>
<path d="M346.26 140.54V148.56H341.79L346.26 140.54Z" fill="#263238"/>
<path opacity="0.4" d="M346.26 203.03H147.66V237.24H346.26V203.03Z" fill="white"/>
<path d="M152.21 204.83L147.66 212.91V204.83H152.21Z" fill="#263238"/>
<path d="M176.74 204.83L159.31 235.85H147.66V232.05L162.96 204.83H176.74Z" fill="#263238"/>
<path d="M183.77 235.98H169.99L187.5 204.83H201.27L183.77 235.98Z" fill="#263238"/>
<path d="M208.3 235.98H194.52L212.03 204.83H225.81L208.3 235.98Z" fill="#263238"/>
<path d="M232.83 235.98H219.05L236.56 204.83H250.34L232.83 235.98Z" fill="#263238"/>
<path d="M257.36 235.98H243.59L261.09 204.83H274.87L257.36 235.98Z" fill="#263238"/>
<path d="M281.9 235.75H268.12L285.63 204.6H299.4L281.9 235.75Z" fill="#263238"/>
<path d="M306.43 235.75H292.65L310.16 204.6H323.94L306.43 235.75Z" fill="#263238"/>
<path d="M346.26 204.72V208.52L330.96 235.74H317.18L334.62 204.72H346.26Z" fill="#263238"/>
<path d="M346.26 227.89V235.85H341.79L346.26 227.89Z" fill="#263238"/>
<path d="M214.06 181.58V184.43H200.36V166.16H213.7V169H203.76V173.75H212.58V176.58H203.76V181.58H214.06Z" fill="white"/>
<path d="M229.8 184.43L226.07 179.08C225.83 179.08 225.6 179.08 225.36 179.08H221.24V184.41H217.89V166.16H225.41C230.21 166.16 233.19 168.61 233.19 172.66C233.245 173.912 232.896 175.148 232.196 176.186C231.496 177.225 230.481 178.012 229.3 178.43L233.5 184.43H229.8ZM225.2 169.03H221.2V176.31H225.2C228.2 176.31 229.72 174.95 229.72 172.66C229.72 170.37 228.18 169.03 225.2 169.03Z" fill="white"/>
<path d="M248.89 184.43L245.16 179.08C244.92 179.08 244.69 179.08 244.45 179.08H240.33V184.41H236.89V166.16H244.4C249.21 166.16 252.18 168.61 252.18 172.66C252.235 173.912 251.887 175.148 251.186 176.186C250.486 177.225 249.471 178.012 248.29 178.43L252.49 184.43H248.89ZM244.3 169.03H240.3V176.31H244.3C247.3 176.31 248.81 174.95 248.81 172.66C248.81 170.37 247.25 169.03 244.28 169.03H244.3Z" fill="white"/>
<path d="M254.68 175.29C254.68 169.89 258.86 165.9 264.52 165.9C270.18 165.9 274.36 169.9 274.36 175.29C274.36 180.68 270.19 184.69 264.52 184.69C258.85 184.69 254.68 180.7 254.68 175.29ZM270.94 175.29C270.94 174.02 270.563 172.779 269.858 171.723C269.153 170.668 268.15 169.845 266.977 169.359C265.804 168.873 264.513 168.746 263.268 168.994C262.022 169.241 260.878 169.853 259.98 170.751C259.083 171.648 258.471 172.792 258.223 174.038C257.976 175.283 258.103 176.574 258.589 177.747C259.075 178.92 259.897 179.923 260.953 180.628C262.009 181.334 263.25 181.71 264.52 181.71C265.37 181.737 266.217 181.588 267.008 181.275C267.799 180.962 268.517 180.49 269.118 179.888C269.72 179.287 270.192 178.569 270.505 177.778C270.818 176.987 270.966 176.14 270.94 175.29Z" fill="white"/>
<path d="M289.89 184.43L286.16 179.08C285.92 179.08 285.69 179.08 285.46 179.08H281.33V184.41H277.94V166.16H285.46C290.26 166.16 293.23 168.61 293.23 172.66C293.285 173.912 292.936 175.148 292.236 176.186C291.536 177.225 290.521 178.012 289.34 178.43L293.55 184.43H289.89ZM285.3 169.03H281.3V176.31H285.3C288.3 176.31 289.81 174.95 289.81 172.66C289.81 170.37 288.29 169.03 285.32 169.03H285.3Z" fill="white"/>
<path opacity="0.4" d="M309.5 187.31H331.01C331.484 187.31 331.95 187.186 332.361 186.949C332.771 186.712 333.112 186.371 333.35 185.961C333.587 185.55 333.712 185.085 333.712 184.611C333.712 184.136 333.587 183.671 333.35 183.26L322.59 164.63C322.355 164.219 322.015 163.877 321.605 163.639C321.195 163.401 320.729 163.276 320.255 163.276C319.781 163.276 319.315 163.401 318.905 163.639C318.495 163.877 318.155 164.219 317.92 164.63L307.16 183.26C306.923 183.671 306.798 184.136 306.798 184.611C306.798 185.085 306.923 185.55 307.16 185.961C307.398 186.371 307.739 186.712 308.149 186.949C308.56 187.186 309.026 187.31 309.5 187.31ZM321.7 169.71L321.23 178.99H319.23L318.74 169.71H321.7ZM318.7 182.18C318.697 181.976 318.736 181.774 318.814 181.586C318.892 181.397 319.007 181.227 319.153 181.085C319.299 180.942 319.473 180.831 319.663 180.758C319.853 180.685 320.056 180.652 320.26 180.66C320.468 180.646 320.677 180.676 320.874 180.746C321.071 180.816 321.251 180.926 321.403 181.068C321.556 181.21 321.678 181.382 321.762 181.574C321.845 181.765 321.889 181.971 321.89 182.18C321.89 182.389 321.848 182.595 321.767 182.788C321.685 182.98 321.565 183.153 321.415 183.298C321.265 183.443 321.087 183.556 320.892 183.63C320.697 183.704 320.489 183.738 320.28 183.73C320.07 183.743 319.86 183.712 319.663 183.639C319.467 183.566 319.287 183.453 319.135 183.308C318.984 183.162 318.865 182.987 318.785 182.793C318.705 182.599 318.665 182.39 318.67 182.18H318.7Z" fill="white"/>
<path opacity="0.4" d="M162.89 187.31H184.4C184.873 187.309 185.338 187.183 185.747 186.945C186.156 186.708 186.496 186.367 186.732 185.957C186.968 185.546 187.092 185.081 187.092 184.608C187.091 184.135 186.967 183.67 186.73 183.26L175.98 164.63C175.745 164.219 175.405 163.877 174.995 163.639C174.585 163.401 174.119 163.276 173.645 163.276C173.171 163.276 172.705 163.401 172.295 163.639C171.885 163.877 171.545 164.219 171.31 164.63L160.55 183.26C160.313 183.671 160.188 184.136 160.188 184.611C160.188 185.085 160.313 185.55 160.55 185.961C160.788 186.371 161.129 186.712 161.539 186.949C161.95 187.186 162.416 187.31 162.89 187.31ZM175.09 169.71L174.61 178.99H172.61L172.12 169.71H175.09ZM172.09 182.18C172.087 181.976 172.126 181.774 172.204 181.586C172.282 181.397 172.397 181.227 172.543 181.085C172.689 180.942 172.862 180.831 173.053 180.758C173.243 180.685 173.446 180.652 173.65 180.66C173.857 180.649 174.063 180.681 174.258 180.752C174.452 180.823 174.63 180.933 174.78 181.076C174.931 181.218 175.051 181.389 175.133 181.579C175.216 181.769 175.259 181.973 175.26 182.18C175.26 182.389 175.218 182.595 175.137 182.788C175.055 182.98 174.935 183.153 174.785 183.298C174.635 183.443 174.457 183.556 174.262 183.63C174.067 183.704 173.859 183.738 173.65 183.73C173.444 183.736 173.24 183.699 173.049 183.623C172.858 183.548 172.684 183.434 172.538 183.289C172.393 183.144 172.278 182.971 172.201 182.78C172.123 182.59 172.086 182.386 172.09 182.18Z" fill="white"/>
<path opacity="0.1" d="M168.36 105.58C195.82 133.09 266.36 194.31 346.26 189.79V105.58H168.36Z" fill="white"/>
<path opacity="0.1" d="M147.66 156.16V237.38H267.23C262.64 220.97 253.48 198.51 235.7 182.46C203.71 153.58 166.59 153.66 147.66 156.16Z" fill="white"/>
<path d="M317.89 291.58L321.45 293.14C320.711 293.859 319.782 294.353 318.773 294.564C317.764 294.775 316.715 294.693 315.75 294.33C314.645 293.831 313.758 292.947 313.256 291.844C312.754 290.74 312.67 289.491 313.02 288.33C313.239 287.515 313.691 286.782 314.32 286.22L304.64 261.49C301.16 261.63 299.69 258.37 299.77 256.13L303.31 257.7C303.51 257.806 303.73 257.87 303.955 257.887C304.181 257.905 304.408 257.875 304.622 257.8C304.835 257.725 305.031 257.607 305.197 257.453C305.363 257.299 305.495 257.112 305.585 256.904C305.675 256.696 305.721 256.472 305.72 256.246C305.719 256.02 305.671 255.796 305.58 255.589C305.488 255.382 305.355 255.196 305.188 255.043C305.021 254.89 304.824 254.773 304.61 254.7L301.05 253.14C301.788 252.42 302.717 251.925 303.727 251.715C304.736 251.504 305.785 251.586 306.75 251.95C307.862 252.434 308.763 253.3 309.29 254.392C309.817 255.484 309.934 256.729 309.62 257.9C309.455 258.687 309.05 259.403 308.46 259.95L318.14 284.69C320.85 284.84 322.95 287.86 322.87 290.1L319.26 288.58C318.854 288.405 318.395 288.397 317.983 288.558C317.572 288.719 317.24 289.036 317.06 289.44C316.894 289.835 316.887 290.279 317.042 290.678C317.197 291.077 317.501 291.401 317.89 291.58Z" fill="#7F1D1D"/>
<path opacity="0.2" d="M317.89 291.58L321.45 293.14C320.711 293.859 319.782 294.353 318.773 294.564C317.764 294.775 316.715 294.693 315.75 294.33C314.645 293.831 313.758 292.947 313.256 291.844C312.754 290.74 312.67 289.491 313.02 288.33C313.239 287.515 313.691 286.782 314.32 286.22L304.64 261.49C301.16 261.63 299.69 258.37 299.77 256.13L303.31 257.7C303.51 257.806 303.73 257.87 303.955 257.887C304.181 257.905 304.408 257.875 304.622 257.8C304.835 257.725 305.031 257.607 305.197 257.453C305.363 257.299 305.495 257.112 305.585 256.904C305.675 256.696 305.721 256.472 305.72 256.246C305.719 256.02 305.671 255.796 305.58 255.589C305.488 255.382 305.355 255.196 305.188 255.043C305.021 254.89 304.824 254.773 304.61 254.7L301.05 253.14C301.788 252.42 302.717 251.925 303.727 251.715C304.736 251.504 305.785 251.586 306.75 251.95C307.862 252.434 308.763 253.3 309.29 254.392C309.817 255.484 309.934 256.729 309.62 257.9C309.455 258.687 309.05 259.403 308.46 259.95L318.14 284.69C320.85 284.84 322.95 287.86 322.87 290.1L319.26 288.58C318.854 288.405 318.395 288.397 317.983 288.558C317.572 288.719 317.24 289.036 317.06 289.44C316.894 289.835 316.887 290.279 317.042 290.678C317.197 291.077 317.501 291.401 317.89 291.58Z" fill="white"/>
<path d="M290.28 269.72L286.51 270.66C286.653 269.638 287.087 268.679 287.758 267.896C288.43 267.112 289.312 266.538 290.3 266.24C291.481 265.96 292.724 266.118 293.797 266.687C294.87 267.256 295.699 268.195 296.13 269.33C296.453 270.111 296.54 270.97 296.38 271.8L319.14 285.49C321.81 283.25 324.96 284.94 326.27 286.76L322.51 287.68C322.299 287.73 322.099 287.822 321.924 287.951C321.749 288.079 321.601 288.241 321.489 288.427C321.377 288.614 321.304 288.821 321.273 289.036C321.242 289.251 321.255 289.47 321.31 289.68C321.418 290.103 321.69 290.465 322.064 290.688C322.439 290.911 322.887 290.976 323.31 290.87L327.09 289.93C326.947 290.952 326.513 291.911 325.842 292.695C325.17 293.478 324.288 294.052 323.3 294.35C322.119 294.645 320.871 294.503 319.785 293.952C318.7 293.401 317.849 292.477 317.39 291.35C317.045 290.625 316.927 289.813 317.05 289.02L294.3 275.32C292.05 276.86 288.55 275.75 287.25 273.92L291.05 272.92C291.472 272.809 291.835 272.539 292.063 272.166C292.29 271.793 292.365 271.347 292.27 270.92C292.164 270.498 291.895 270.135 291.522 269.91C291.149 269.686 290.703 269.617 290.28 269.72Z" fill="#7F1D1D"/>
<path opacity="0.2" d="M290.28 269.72L286.51 270.66C286.653 269.638 287.087 268.679 287.758 267.896C288.43 267.112 289.312 266.538 290.3 266.24C291.481 265.96 292.724 266.118 293.797 266.687C294.87 267.256 295.699 268.195 296.13 269.33C296.453 270.111 296.54 270.97 296.38 271.8L319.14 285.49C321.81 283.25 324.96 284.94 326.27 286.76L322.51 287.68C322.299 287.73 322.099 287.822 321.924 287.951C321.749 288.079 321.601 288.241 321.489 288.427C321.377 288.614 321.304 288.821 321.273 289.036C321.242 289.251 321.255 289.47 321.31 289.68C321.418 290.103 321.69 290.465 322.064 290.688C322.439 290.911 322.887 290.976 323.31 290.87L327.09 289.93C326.947 290.952 326.513 291.911 325.842 292.695C325.17 293.478 324.288 294.052 323.3 294.35C322.119 294.645 320.871 294.503 319.785 293.952C318.7 293.401 317.849 292.477 317.39 291.35C317.045 290.625 316.927 289.813 317.05 289.02L294.3 275.32C292.05 276.86 288.55 275.75 287.25 273.92L291.05 272.92C291.472 272.809 291.835 272.539 292.063 272.166C292.29 271.793 292.365 271.347 292.27 270.92C292.164 270.498 291.895 270.135 291.522 269.91C291.149 269.686 290.703 269.617 290.28 269.72Z" fill="white"/>
<path d="M366.78 258.34L366.84 258.18H331.67L323.42 279.97H358.44L358.42 280.03H361.31L368.73 260.6L366.78 258.34Z" fill="#263238"/>
<path opacity="0.2" d="M366.78 258.34L366.84 258.18H331.67L323.42 279.97H358.44L358.42 280.03H361.31L368.73 260.6L366.78 258.34Z" fill="white"/>
<path opacity="0.4" d="M366.84 258.18L358.59 279.97H323.42L331.67 258.18H366.84Z" fill="black"/>
<path d="M305.79 273.43L313.93 283.89L316.85 283.45L308.26 273.43H305.79Z" fill="#263238"/>
<path opacity="0.1" d="M305.79 273.43L313.93 283.89L316.85 283.45L308.26 273.43H305.79Z" fill="white"/>
<path d="M308.26 263.54L316.4 274L319.32 273.56L310.73 263.54H308.26Z" fill="#263238"/>
<path opacity="0.1" d="M308.26 263.54L316.4 274L319.32 273.56L310.73 263.54H308.26Z" fill="white"/>
<path d="M297.77 297.73H358.59V279.97H297.77V297.73Z" fill="#263238"/>
<path opacity="0.2" d="M297.77 297.73H358.59V279.97H297.77V297.73Z" fill="white"/>
<path d="M304.37 274.54H360.24V271.73H304.37V274.54Z" fill="#263238"/>
<path opacity="0.2" d="M304.37 274.54H360.24V271.73H304.37V274.54Z" fill="white"/>
<path opacity="0.2" d="M338.79 274.54H360.24V271.73H338.79V274.54Z" fill="black"/>
<path d="M307.67 266.28H363.54V263.47H307.67V266.28Z" fill="#263238"/>
<path opacity="0.2" d="M307.67 266.28H363.54V263.47H307.67V266.28Z" fill="white"/>
<path opacity="0.2" d="M342.09 266.28H363.54V263.47H342.09V266.28Z" fill="black"/>
<path opacity="0.2" d="M334.67 297.73H358.59V279.97H334.67V297.73Z" fill="black"/>
</svg>
