<svg width="406" height="368" viewBox="0 0 406 368" fill="none" xmlns="http://www.w3.org/2000/svg">
<path d="M193.89 367.085C300.972 367.085 387.78 362.017 387.78 355.765C387.78 349.513 300.972 344.445 193.89 344.445C86.8075 344.445 0 349.513 0 355.765C0 362.017 86.8075 367.085 193.89 367.085Z" fill="#F5F5F5"/>
<path d="M278.59 98.1549C278.41 101.155 278.06 103.905 277.67 106.755C277.28 109.605 276.75 112.395 276.15 115.195C274.98 120.862 273.29 126.409 271.1 131.765L270.19 133.765L269.97 134.265L269.89 134.525L269.73 134.845C269.424 135.473 269.038 136.058 268.58 136.585C268.035 137.198 267.385 137.71 266.66 138.095C265.949 138.468 265.177 138.712 264.38 138.815C263.157 138.946 261.92 138.816 260.75 138.435C259.093 137.869 257.529 137.06 256.11 136.035C254.869 135.16 253.683 134.208 252.56 133.185C248.351 129.282 244.564 124.949 241.26 120.255L244.57 117.445C246.57 119.295 248.57 121.165 250.57 122.935C252.558 124.705 254.634 126.373 256.79 127.935C257.805 128.661 258.86 129.329 259.95 129.935C260.829 130.468 261.778 130.875 262.77 131.145C263.11 131.215 263.35 131.145 263.24 131.145C263.004 131.171 262.783 131.273 262.61 131.435C262.55 131.435 262.55 131.435 262.61 131.435L262.93 130.605L263.63 128.785C265.365 123.774 266.719 118.64 267.68 113.425C268.21 110.805 268.58 108.135 268.98 105.485C269.38 102.835 269.66 100.105 269.89 97.5749L278.59 98.1549Z" fill="#FFC3BD"/>
<path d="M272.53 87.1449C268.8 88.0949 266.19 103.435 266.19 103.435L276.46 110.435C276.46 110.435 286.31 94.9649 283.46 90.8649C280.46 86.5749 277.97 85.7649 272.53 87.1449Z" fill="#CECECF"/>
<path d="M272.53 87.1449C268.8 88.0949 266.19 103.435 266.19 103.435L276.46 110.435C276.46 110.435 286.31 94.9649 283.46 90.8649C280.46 86.5749 277.97 85.7649 272.53 87.1449Z" fill="#CECECF"/>
<path opacity="0.4" d="M272.53 87.1449C268.8 88.0949 266.19 103.435 266.19 103.435L276.46 110.435C276.46 110.435 286.31 94.9649 283.46 90.8649C280.46 86.5749 277.97 85.7649 272.53 87.1449Z" fill="black"/>
<path opacity="0.3" d="M272.86 90.5749L270 106.025L275.77 109.945L272.86 90.5749Z" fill="black"/>
<path d="M244.74 116.815L239.89 109.095L237.12 117.865C237.12 117.865 241.12 122.065 244.75 121.065L244.74 116.815Z" fill="#FFC3BD"/>
<path d="M232.69 106.545L230.77 114.005L237.08 117.865L239.85 109.095L232.69 106.545Z" fill="#FFC3BD"/>
<path d="M292.69 345.275H283.65L283.04 324.335H292.09L292.69 345.275Z" fill="#FFC3BD"/>
<path d="M372.48 303.275L365.59 309.135L349.82 295.055L356.71 289.205L372.48 303.275Z" fill="#FFC3BD"/>
<path d="M363.7 308.435L370.39 300.775C370.504 300.643 370.663 300.557 370.836 300.533C371.008 300.509 371.184 300.549 371.33 300.645L378.14 305.055C378.308 305.172 378.449 305.323 378.555 305.498C378.66 305.673 378.728 305.869 378.752 306.072C378.777 306.275 378.758 306.481 378.697 306.676C378.637 306.871 378.535 307.051 378.4 307.205C376.02 309.835 374.74 310.985 371.8 314.345C370 316.415 367.57 319.635 365.07 322.485C362.57 325.335 359.61 323.035 360.4 321.615C363.91 315.275 363.07 313.055 363.13 309.935C363.139 309.384 363.341 308.853 363.7 308.435Z" fill="#263238"/>
<path d="M283.34 344.235H293.5C293.675 344.233 293.844 344.295 293.977 344.409C294.109 344.523 294.196 344.682 294.22 344.855L295.38 352.855C295.413 353.066 295.398 353.282 295.337 353.487C295.277 353.693 295.171 353.882 295.029 354.041C294.887 354.201 294.711 354.327 294.514 354.411C294.317 354.494 294.104 354.533 293.89 354.525C290.35 354.465 288.64 354.255 284.17 354.255C281.42 354.255 275.74 354.545 271.94 354.545C268.14 354.545 267.94 350.785 269.53 350.455C276.61 348.925 279.4 346.825 281.79 344.815C282.22 344.441 282.77 344.235 283.34 344.235Z" fill="#263238"/>
<path opacity="0.2" d="M283.05 324.345L283.36 335.135H292.4L292.09 324.345H283.05Z" fill="black"/>
<path opacity="0.2" d="M356.72 289.205L349.82 295.055L357.96 302.315L364.85 296.455L356.72 289.205Z" fill="black"/>
<path d="M272.53 87.1449C272.53 87.1449 268.22 88.6649 276.85 141.725H313.57C312.96 126.775 312.94 117.555 320.08 86.8849C314.939 85.825 309.729 85.1365 304.49 84.8249C298.937 84.4293 293.363 84.4293 287.81 84.8249C280.65 85.5249 272.53 87.1449 272.53 87.1449Z" fill="#CECECF"/>
<path opacity="0.4" d="M272.53 87.1449C272.53 87.1449 268.22 88.6649 276.85 141.725H313.57C312.96 126.775 312.94 117.555 320.08 86.8849C314.939 85.825 309.729 85.1365 304.49 84.8249C298.937 84.4293 293.363 84.4293 287.81 84.8249C280.65 85.5249 272.53 87.1449 272.53 87.1449Z" fill="black"/>
<path d="M304.49 84.8249C298.937 84.4293 293.363 84.4293 287.81 84.8249C286.91 84.9049 285.99 85.0049 285.08 85.1149C284.703 85.6832 284.463 86.3305 284.376 87.0067C284.289 87.6829 284.359 88.37 284.58 89.0149C285.75 91.9249 289.97 92.2649 293.05 92.2649C304.42 92.2649 306.34 85.6249 306.42 85.3449L306.53 84.9449C305.89 84.9049 305.17 84.8549 304.49 84.8249Z" fill="white"/>
<path d="M302.89 66.0549C301.83 71.4149 300.79 81.2449 304.54 84.8249C304.54 84.8249 303.07 90.2749 293.1 90.2749C282.1 90.2749 287.86 84.8349 287.86 84.8349C293.86 83.4049 293.69 78.9649 292.65 74.8349L302.89 66.0549Z" fill="#FFC3BD"/>
<path opacity="0.2" d="M298.66 69.6149L292.6 74.7849C292.861 75.7677 293.035 76.7716 293.12 77.7849C295.4 77.4549 298.54 74.9449 298.79 72.5549C298.93 71.5754 298.886 70.5782 298.66 69.6149Z" fill="black"/>
<path d="M296.6 36.8749C295.67 33.7249 294.89 28.7649 300.49 26.5249C298.3 23.8449 297.77 18.8049 300.49 15.8149C303.21 12.8249 307.29 13.9249 307.29 13.9249C307.29 13.9249 308.49 6.61491 317.38 7.92491C326.27 9.23491 322.31 15.0849 322.31 15.0849C322.31 15.0849 334.44 12.6849 335.25 24.0849C336.06 35.4849 329.1 34.0849 329.1 34.0849C329.1 34.0849 334.51 38.6249 331.51 43.6149C328.51 48.6049 321.58 46.8849 321.58 46.8849C321.58 46.8849 318.32 55.7049 310.64 50.6849C302.96 45.6649 296.6 36.8749 296.6 36.8749Z" fill="#263238"/>
<path d="M278.59 43.5249C275.59 47.4049 276.91 51.7949 279.59 53.5249C286.04 57.6449 295.37 40.3649 292.94 38.2949C290.51 36.2249 281.59 39.6349 278.59 43.5249Z" fill="#263238"/>
<path d="M305.68 34.2849C301.44 32.5749 297.14 34.3649 295.8 36.9449C292.53 43.2349 307.38 54.5649 311.68 46.7049C314.23 42.0349 310.05 36.0449 305.68 34.2849Z" fill="#CECECF"/>
<path d="M303.89 53.5249C304.2 62.5249 304.52 66.2849 300.45 71.2949C294.34 78.8249 283.25 77.2449 280.27 68.5449C277.59 60.7149 277.54 47.3649 285.93 42.9849C287.774 42.0093 289.837 41.5214 291.923 41.5674C294.009 41.6135 296.049 42.192 297.848 43.248C299.648 44.3041 301.147 45.8026 302.205 47.6012C303.262 49.3999 303.842 51.439 303.89 53.5249Z" fill="#FFC3BD"/>
<path d="M302.54 58.2349C298.54 56.7449 297.54 52.0749 298.18 50.2349C296.18 50.1549 291.81 49.4349 290.18 46.9549C287.06 48.9549 280.47 50.9549 279.76 47.6249C279.05 44.2949 288.99 35.7349 296.51 35.0749C305.45 34.2949 314.27 43.0749 312 51.4849C309.73 59.8949 302.54 58.2349 302.54 58.2349Z" fill="#263238"/>
<path d="M276.89 141.725C276.89 141.725 269.76 211.375 270.35 238.955C270.97 267.635 281.48 333.045 281.48 333.045H293.7C293.7 333.045 291.77 269.305 292.85 241.145C294.03 210.435 303.78 141.725 303.78 141.725H276.89Z" fill="#263238"/>
<path d="M294.72 333.485H280.38L279.32 328.915L295.39 328.355L294.72 333.485Z" fill="#CECECF"/>
<path opacity="0.2" d="M292.69 159.055C283.69 177.195 290.88 210.295 294.07 222.615C295.7 204.115 298.46 181.505 300.61 164.905C299.25 155.525 296.89 150.685 292.69 159.055Z" fill="black"/>
<path d="M286.55 141.725C286.55 141.725 294.87 214.135 301.15 237.385C308.61 264.985 354.94 302.135 354.94 302.135L364.34 294.135C364.34 294.135 330.76 253.775 325.05 239.235C312.88 208.235 323.3 161.955 313.57 141.705L286.55 141.725Z" fill="#263238"/>
<path d="M365.84 293.725L354.18 303.625L349.82 301.015L363.01 288.745L365.84 293.725Z" fill="#CECECF"/>
<path d="M290.58 57.2849C290.65 58.0149 290.32 58.6349 289.85 58.6849C289.38 58.7349 288.93 58.1749 288.85 57.4549C288.77 56.7349 289.11 56.0949 289.59 56.0549C290.07 56.0149 290.51 56.5249 290.58 57.2849Z" fill="#263238"/>
<path d="M282.38 58.0749C282.45 58.7949 282.12 59.4249 281.64 59.4749C281.16 59.5249 280.73 58.9649 280.64 58.2349C280.55 57.5049 280.9 56.8849 281.37 56.8449C281.84 56.8049 282.31 57.3449 282.38 58.0749Z" fill="#263238"/>
<path d="M281.6 56.8649L279.81 56.5249C279.81 56.5249 280.89 57.8049 281.6 56.8649Z" fill="#263238"/>
<path d="M284.66 59.1149C284.173 60.8318 283.453 62.4738 282.52 63.9949C282.917 64.2231 283.358 64.3627 283.814 64.4041C284.269 64.4455 284.729 64.3878 285.16 64.2349L284.66 59.1149Z" fill="#ED847E"/>
<path d="M289.19 66.6249C288.794 66.7333 288.389 66.807 287.98 66.8449C287.952 66.8477 287.925 66.8449 287.898 66.8368C287.871 66.8288 287.847 66.8155 287.825 66.7978C287.804 66.7802 287.786 66.7585 287.773 66.7339C287.76 66.7094 287.752 66.6825 287.75 66.6549C287.744 66.5981 287.761 66.5412 287.796 66.4964C287.832 66.4517 287.883 66.4224 287.94 66.4149C288.845 66.3483 289.722 66.0702 290.5 65.603C291.278 65.1358 291.936 64.4925 292.42 63.7249C292.431 63.6984 292.448 63.6747 292.47 63.6555C292.491 63.6362 292.517 63.6218 292.544 63.6132C292.572 63.6047 292.601 63.6022 292.63 63.6059C292.658 63.6097 292.686 63.6196 292.71 63.6349C292.759 63.6624 292.796 63.7079 292.813 63.7619C292.83 63.8159 292.825 63.8743 292.8 63.9249C291.993 65.2599 290.699 66.2284 289.19 66.6249Z" fill="#263238"/>
<path d="M305.99 59.7349C305.771 61.4558 304.879 63.0199 303.51 64.0849C301.68 65.4849 299.92 64.0849 299.71 61.8949C299.53 59.8949 300.25 56.8949 302.43 56.3149C302.906 56.218 303.398 56.238 303.864 56.3732C304.33 56.5084 304.757 56.7548 305.107 57.0911C305.457 57.4275 305.72 57.8438 305.874 58.3043C306.028 58.7647 306.068 59.2557 305.99 59.7349Z" fill="#FFC3BD"/>
<path d="M291.46 52.1449C291.404 52.159 291.347 52.1618 291.29 52.1532C291.233 52.1446 291.179 52.1248 291.13 52.0949C290.677 51.8056 290.161 51.6275 289.626 51.5754C289.091 51.5233 288.551 51.5985 288.05 51.7949C287.946 51.8411 287.828 51.8462 287.721 51.8091C287.613 51.772 287.523 51.6954 287.47 51.5949C287.422 51.4927 287.416 51.3756 287.453 51.2689C287.49 51.1622 287.568 51.0745 287.67 51.0249C288.3 50.7648 288.983 50.66 289.661 50.7191C290.34 50.7783 290.995 50.9998 291.57 51.3649C291.617 51.3936 291.659 51.4315 291.692 51.4762C291.724 51.521 291.748 51.5718 291.761 51.6257C291.774 51.6797 291.776 51.7356 291.767 51.7904C291.759 51.8452 291.739 51.8977 291.71 51.9449C291.655 52.0406 291.565 52.112 291.46 52.1449Z" fill="#263238"/>
<path d="M278.36 54.6349C278.257 54.6741 278.143 54.6741 278.04 54.6349C277.943 54.5782 277.871 54.4866 277.84 54.3787C277.808 54.2709 277.819 54.155 277.87 54.0549C278.175 53.4463 278.623 52.9203 279.174 52.5216C279.726 52.1229 280.366 51.8633 281.04 51.7649C281.096 51.7594 281.153 51.7652 281.206 51.782C281.26 51.7988 281.31 51.8262 281.353 51.8625C281.395 51.8989 281.431 51.9435 281.456 51.9938C281.481 52.044 281.496 52.0988 281.5 52.1549C281.508 52.2674 281.472 52.3787 281.399 52.4647C281.326 52.5508 281.222 52.6047 281.11 52.6149C280.58 52.7042 280.078 52.9173 279.645 53.237C279.212 53.5567 278.861 53.974 278.62 54.4549C278.592 54.5014 278.554 54.5414 278.509 54.5724C278.464 54.6034 278.414 54.6247 278.36 54.6349Z" fill="#263238"/>
<path d="M323.83 96.6349C325.869 101.623 327.628 106.721 329.1 111.905C330.66 117.134 331.771 122.487 332.42 127.905C332.59 129.285 332.64 130.735 332.7 132.165V132.975C332.7 133.265 332.65 133.565 332.61 133.825C332.527 134.325 332.413 134.819 332.27 135.305C332.009 136.137 331.675 136.943 331.27 137.715C329.883 140.279 328.184 142.66 326.21 144.805C322.56 148.815 318.542 152.474 314.21 155.735L311.32 152.525C314.65 148.635 318.01 144.645 320.86 140.525C322.237 138.655 323.41 136.644 324.36 134.525C324.523 134.115 324.657 133.694 324.76 133.265C324.787 133.12 324.804 132.973 324.81 132.825C324.815 132.782 324.815 132.738 324.81 132.695V132.555C324.68 131.375 324.59 130.195 324.37 128.985C323.51 124.045 322.31 119.17 320.78 114.395C319.25 109.555 317.54 104.645 315.78 99.9649L323.83 96.6349Z" fill="#FFC3BD"/>
<path d="M320.08 86.8849C323.76 88.0049 328.18 100.675 328.18 100.675L313.89 110.875C313.89 110.875 308.68 100.305 310.23 95.5449C311.89 90.5949 315.89 85.6049 320.08 86.8849Z" fill="#CECECF"/>
<path opacity="0.4" d="M320.08 86.8849C323.76 88.0049 328.18 100.675 328.18 100.675L313.89 110.875C313.89 110.875 308.68 100.305 310.23 95.5449C311.89 90.5949 315.89 85.6049 320.08 86.8849Z" fill="black"/>
<path d="M361.23 312.795C361.045 312.79 360.863 312.743 360.699 312.659C360.534 312.574 360.391 312.453 360.28 312.305C360.189 312.211 360.125 312.096 360.093 311.969C360.062 311.843 360.064 311.71 360.1 311.585C360.44 310.485 363.58 309.585 363.94 309.485C363.979 309.471 364.022 309.47 364.062 309.483C364.102 309.495 364.136 309.521 364.16 309.555C364.182 309.589 364.194 309.629 364.194 309.67C364.194 309.711 364.182 309.751 364.16 309.785C363.6 310.855 362.49 312.655 361.35 312.785L361.23 312.795ZM363.55 310.045C362.31 310.445 360.69 311.135 360.55 311.715C360.535 311.77 360.536 311.828 360.551 311.883C360.567 311.937 360.598 311.986 360.64 312.025C360.72 312.14 360.828 312.231 360.955 312.291C361.081 312.35 361.221 312.376 361.36 312.365C361.94 312.295 362.75 311.435 363.55 310.045Z" fill="#CECECF"/>
<path d="M362.56 310.085C361.624 310.18 360.688 309.916 359.94 309.345C359.835 309.212 359.778 309.049 359.778 308.88C359.778 308.711 359.835 308.547 359.94 308.415C360.029 308.276 360.148 308.159 360.288 308.073C360.428 307.986 360.586 307.932 360.75 307.915C362.05 307.755 364.02 309.455 364.1 309.525C364.129 309.548 364.151 309.58 364.164 309.615C364.176 309.65 364.178 309.688 364.17 309.725C364.166 309.764 364.15 309.801 364.125 309.831C364.101 309.861 364.067 309.883 364.03 309.895C363.552 310.031 363.057 310.095 362.56 310.085ZM360.97 308.335H360.83C360.728 308.346 360.629 308.38 360.541 308.434C360.453 308.487 360.377 308.559 360.32 308.645C360.17 308.875 360.22 308.995 360.32 309.075C360.71 309.585 362.49 309.775 363.57 309.575C362.831 308.935 361.932 308.507 360.97 308.335Z" fill="#CECECF"/>
<path d="M279.94 345.815C279.167 345.885 278.394 345.687 277.75 345.255C277.612 345.129 277.506 344.974 277.438 344.8C277.37 344.627 277.344 344.44 277.36 344.255C277.368 344.136 277.406 344.022 277.471 343.922C277.536 343.822 277.625 343.741 277.73 343.685C278.84 343.075 282.44 344.915 282.85 345.135C282.888 345.156 282.919 345.189 282.939 345.228C282.958 345.267 282.966 345.311 282.96 345.355C282.954 345.399 282.935 345.44 282.904 345.473C282.874 345.505 282.834 345.527 282.79 345.535C281.851 345.715 280.897 345.809 279.94 345.815ZM278.33 343.945C278.192 343.936 278.054 343.964 277.93 344.025C277.887 344.046 277.851 344.079 277.826 344.119C277.802 344.16 277.789 344.207 277.79 344.255C277.774 344.38 277.788 344.507 277.831 344.626C277.875 344.744 277.946 344.85 278.04 344.935C278.59 345.435 280.04 345.515 282.04 345.185C280.883 344.563 279.628 344.144 278.33 343.945Z" fill="#CECECF"/>
<path d="M282.75 345.525H282.66C281.58 345.035 279.45 343.085 279.66 342.065C279.66 341.825 279.87 341.515 280.46 341.455C280.673 341.433 280.888 341.454 281.093 341.518C281.298 341.581 281.487 341.686 281.65 341.825C282.78 342.775 282.99 345.205 283 345.315C283.003 345.352 282.996 345.389 282.98 345.422C282.965 345.455 282.94 345.484 282.91 345.505C282.886 345.52 282.86 345.529 282.832 345.533C282.805 345.536 282.776 345.534 282.75 345.525ZM280.59 341.855H280.47C280.07 341.855 280.05 342.055 280.04 342.105C279.94 342.715 281.39 344.255 282.49 344.915C282.4 343.888 281.995 342.913 281.33 342.125C281.128 341.939 280.865 341.832 280.59 341.825V341.855Z" fill="#CECECF"/>
<path d="M314.12 139.525L315.06 142.815C315.19 143.065 314.89 143.325 314.46 143.325H276.67C276.34 143.325 276.06 143.165 276.04 142.955L275.71 139.675C275.71 139.445 275.97 139.255 276.34 139.255H313.53C313.643 139.245 313.757 139.265 313.86 139.312C313.964 139.36 314.053 139.433 314.12 139.525Z" fill="#CECECF"/>
<path opacity="0.3" d="M314.12 139.525L315.06 142.815C315.19 143.065 314.89 143.325 314.46 143.325H276.67C276.34 143.325 276.06 143.165 276.04 142.955L275.71 139.675C275.71 139.445 275.97 139.255 276.34 139.255H313.53C313.643 139.245 313.757 139.265 313.86 139.312C313.964 139.36 314.053 139.433 314.12 139.525Z" fill="white"/>
<path d="M309.13 143.725H310.13C310.32 143.725 310.47 143.625 310.46 143.495L309.99 139.225C309.99 139.105 309.81 138.995 309.61 138.995H308.61C308.41 138.995 308.26 139.105 308.28 139.225L308.74 143.495C308.76 143.625 308.89 143.725 309.13 143.725Z" fill="#263238"/>
<path d="M279.47 143.725H280.47C280.67 143.725 280.82 143.625 280.81 143.495L280.34 139.225C280.34 139.105 280.15 138.995 279.96 138.995H278.96C278.76 138.995 278.61 139.105 278.62 139.225L279.09 143.495C279.1 143.625 279.27 143.725 279.47 143.725Z" fill="#263238"/>
<path d="M294.3 143.725H295.3C295.5 143.725 295.65 143.625 295.64 143.495L295.17 139.225C295.17 139.105 294.99 138.995 294.79 138.995H293.79C293.59 138.995 293.44 139.105 293.46 139.225L293.89 143.525C293.89 143.625 294.1 143.725 294.3 143.725Z" fill="#263238"/>
<path d="M289.81 56.0749L288.02 55.7349C288.02 55.7349 289.04 57.0149 289.81 56.0749Z" fill="#263238"/>
<path opacity="0.2" d="M256.71 183.415C239.768 189.997 221.254 191.407 203.511 187.468C185.767 183.528 169.59 174.415 157.026 161.282C144.461 148.148 136.073 131.584 132.922 113.684C129.771 95.783 131.999 77.3501 139.324 60.7157C146.649 44.0814 158.742 29.9926 174.074 20.231C189.406 10.4694 207.288 5.47341 225.459 5.87471C243.631 6.27601 261.275 12.0566 276.161 22.4855C291.047 32.9145 302.507 47.5234 309.09 64.4649C313.463 75.7144 315.577 87.7152 315.311 99.7818C315.045 111.848 312.405 123.745 307.541 134.791C302.677 145.837 295.684 155.816 286.962 164.159C278.241 172.502 267.961 179.045 256.71 183.415Z" fill="#CECECF"/>
<path opacity="0.1" d="M240.08 7.37491L168 171.075C166.89 170.235 165.79 169.365 164.71 168.485C157.743 162.722 151.676 155.95 146.71 148.395L208.97 6.99491C219.285 5.33358 229.809 5.46212 240.08 7.37491Z" fill="white"/>
<path opacity="0.1" d="M291.32 35.7749L223.55 189.685C209.473 189.7 195.582 186.477 182.95 180.265L256.95 12.1949C270.06 17.322 281.818 25.389 291.32 35.7749Z" fill="white"/>
<path d="M147.77 35.8449C160.016 20.882 176.423 9.88632 194.918 4.24838C213.413 -1.38957 233.164 -1.41657 251.674 4.17077C270.184 9.75812 286.622 20.7089 298.909 35.6382C311.195 50.5676 318.779 68.8051 320.7 88.0444C322.622 107.284 318.795 126.661 309.704 143.725C300.613 160.79 286.666 174.775 269.626 183.913C252.587 193.051 233.22 196.931 213.976 195.062C194.731 193.194 176.473 185.66 161.51 173.415C141.447 156.993 128.729 133.274 126.152 107.475C123.575 81.6765 131.352 55.9108 147.77 35.8449ZM292.89 154.605C304.131 140.865 311.044 124.1 312.757 106.431C314.47 88.7611 310.905 70.9806 302.513 55.3372C294.121 39.6938 281.279 26.8902 265.61 18.5453C249.941 10.2004 232.15 6.68906 214.486 8.4552C196.822 10.2213 180.078 17.1857 166.372 28.4676C152.665 39.7495 142.612 54.8423 137.484 71.8375C132.355 88.8328 132.381 106.967 137.558 123.948C142.735 140.928 152.832 155.992 166.57 167.235C175.693 174.701 186.198 180.296 197.484 183.702C208.77 187.108 220.616 188.257 232.346 187.085C244.076 185.912 255.46 182.44 265.849 176.867C276.237 171.294 285.426 163.729 292.89 154.605Z" fill="#CECECF"/>
<path d="M301.52 154.265C311.15 160.015 320.31 166.335 329.31 172.855C338.31 179.375 347.08 186.165 355.71 193.135C364.34 200.105 372.81 207.275 380.98 214.805C385.073 218.565 389.073 222.425 392.98 226.385C396.9 230.385 400.75 234.385 404.38 238.725C405.219 239.73 405.681 240.995 405.688 242.304C405.694 243.613 405.244 244.883 404.416 245.896C403.587 246.91 402.432 247.602 401.148 247.856C399.864 248.109 398.531 247.907 397.38 247.285C392.38 244.585 387.7 241.605 383.03 238.555C378.36 235.505 373.8 232.325 369.3 229.055C360.3 222.535 351.59 215.665 343.06 208.575C334.53 201.485 326.13 194.235 317.96 186.695C309.79 179.155 301.78 171.435 294.24 163.135C293.298 162.108 292.759 160.777 292.719 159.384C292.68 157.992 293.144 156.632 294.027 155.554C294.909 154.476 296.15 153.753 297.523 153.516C298.896 153.279 300.308 153.545 301.5 154.265H301.52Z" fill="#CECECF"/>
<path d="M312.28 151.525L302.62 152.995L309.53 159.055C309.53 159.055 314.99 157.055 315.53 153.355L312.28 151.525Z" fill="#FFC3BD"/>
<path d="M297.4 158.545L303.47 163.305L310.88 158.465L302.62 153.015L297.4 158.545Z" fill="#FFC3BD"/>
<path d="M251.73 169.075C252.612 166.666 254.203 164.581 256.293 163.094C258.384 161.607 260.875 160.788 263.44 160.745H343.49C344.873 160.693 346.251 160.946 347.526 161.484C348.801 162.023 349.942 162.835 350.869 163.863C351.796 164.891 352.486 166.11 352.891 167.434C353.295 168.758 353.404 170.154 353.21 171.525L332.53 345.035C332.091 347.989 330.616 350.69 328.368 352.656C326.12 354.622 323.246 355.724 320.26 355.765H66.26C64.8814 355.817 63.5081 355.567 62.2367 355.032C60.9653 354.496 59.8267 353.689 58.901 352.666C57.9753 351.643 57.2851 350.43 56.8789 349.111C56.4727 347.793 56.3605 346.401 56.55 345.035L73.89 199.255C74.3289 196.301 75.8042 193.6 78.0521 191.634C80.3001 189.668 83.174 188.566 86.16 188.525H224.38C230.369 188.423 236.188 186.51 241.069 183.038C245.951 179.567 249.667 174.699 251.73 169.075Z" fill="#CECECF"/>
<path d="M61.12 347.775H326.53L341.65 169.195H76.25L61.12 347.775Z" fill="#F0F0F0"/>
<path d="M61.12 347.775H326.53L337.47 169.195H76.25L61.12 347.775Z" fill="#E0E0E0"/>
<path d="M61.12 347.775H326.53L335.65 163.525H70.25L61.12 347.775Z" fill="#F0F0F0"/>
<path d="M61.12 347.775H326.53L330.14 163.525H70.25L61.12 347.775Z" fill="#E0E0E0"/>
<path d="M61.12 347.775H326.53L328.11 158.525H62.71L61.12 347.775Z" fill="#F0F0F0"/>
<path d="M61.12 347.775H326.53L321.08 162.105H57.39L61.12 347.775Z" fill="#E0E0E0"/>
<path d="M61.12 347.775H326.53L318.65 163.525H53.25L61.12 347.775Z" fill="#F0F0F0"/>
<path d="M61.12 347.775H326.53L313.98 166.305H48.58L61.12 347.775Z" fill="#E0E0E0"/>
<path d="M61.12 347.775H326.53L311.98 167.855H46.58L61.12 347.775Z" fill="#F0F0F0"/>
<path d="M194.03 180.345C194.045 179.185 194.293 178.039 194.76 176.977C195.226 175.914 195.902 174.957 196.746 174.161C197.591 173.365 198.587 172.747 199.675 172.344C200.763 171.941 201.921 171.761 203.08 171.815H283.13C286.229 171.934 289.201 173.079 291.58 175.07C293.958 177.061 295.608 179.785 296.27 182.815L327.9 344.815C329.08 350.885 325.12 355.815 319.05 355.815H65.05C58.97 355.815 53.05 350.885 51.9 344.815L25.81 211.265C24.63 205.195 28.59 200.265 34.66 200.265H172.89C184.89 200.265 193.62 192.005 194.03 180.345Z" fill="#CECECF"/>
<path opacity="0.2" d="M194.03 180.345C194.045 179.185 194.293 178.039 194.76 176.977C195.226 175.914 195.902 174.957 196.746 174.161C197.591 173.365 198.587 172.747 199.675 172.344C200.763 171.941 201.921 171.761 203.08 171.815H283.13C286.229 171.934 289.201 173.079 291.58 175.07C293.958 177.061 295.608 179.785 296.27 182.815L327.9 344.815C329.08 350.885 325.12 355.815 319.05 355.815H65.05C58.97 355.815 53.05 350.885 51.9 344.815L25.81 211.265C24.63 205.195 28.59 200.265 34.66 200.265H172.89C184.89 200.265 193.62 192.005 194.03 180.345Z" fill="black"/>
</svg>
